<?xml version="1.0" encoding="utf-8"?>
<!DOCTYPE svg PUBLIC "-//W3C//DTD SVG 1.1//EN" "http://www.w3.org/Graphics/SVG/1.1/DTD/svg11.dtd">
<svg id="Chile" xmlns="http://www.w3.org/2000/svg" viewBox="0 0 296.4 1600" xml:space="preserve">
<style>
path {
	fill: #fff;
	stroke: #fff;
	stroke-miterlimit: "10";
}
</style>
	<path d="m281 184-7 3-8 2-4-1c-2-2-1-4-2-6l-3-9c0-5 0-8-2-13l-2-7-4-20c0-4 0-7-3-9-4-3-10-3-10-8l2-2 3-3c-3-4-9-5-9-10 0-2 3-3 3-5 0-3-2-5-4-7l2-1h7c-1-5-3-8-6-11l9-10c-3-6-9-6-14-11-1-1-2-1-2-3v-6l-3-6-3-11-2-5 2-4c0-2-2-1-4-1-2-1-4-2-4-5l-5-11c-3 2-4 4-7 4l-3-1-1 1 1 12c0 7-7 11-14 11l-4 1 2 8-1 5v5l1 5 1 10c1 6 3 9 3 14 2 5 3 8 3 13 0 6-4 9-4 16v4c0 8 4 12 4 19v9l-1 3-1 8-2 10v4l-2 15-2 10c-1 2 0 5-2 5l-4-2c0 4-3 5-3 8v8l3-3c3 0 3 3 3 5 0 6-3 8-3 13v11c0 5-3 8-3 13 0 8 5 12 5 20v5l-1 5c-1 1-1 2-3 2l-2-1-1 3-2 10c0 2 3 3 3 5l-1 8v8l-4 11c0 5 0 8-2 12 0 3-2 4-3 6v5l1 5v5h-1v335h1c2 0 2-4 5-4h2l1-1c0-4 2-5 3-9h2l3 2 1-6-1-4 2-5-2-5 1-6-1-2v-5c0-2-2-3-3-4 4-3 5-7 6-12l3-5 3-11c1-2 3-4 3-7l-1-2 1-1c3 0 7 1 7-2l-2-21v-2c1-3 3-5 3-8 0-4-4-5-4-9-1-5 0-9-3-14-1-2-5-3-5-7v-4c0-5-4-7-5-12l-4-17-3-6v-5l1-8c0-3-1-5 1-6l4-1 2-4c1-9 2-15 6-23h2c4 0 8-2 8-6 0-3-2-5-3-8l1-4-2-9v-3c0-3-3-4-3-6l2-4 2-5 4-1v-7c1-2 3-3 3-5l-1-4c0-3 2-4 3-6v-6h2c2-1 1-3 2-4l3-1c3-1 2-4 3-7l3-2 4-7 7-15v-6l3-4 5 2c4 0 7-1 10-4l1-3-3-4-6-8c-1-1-3-1-3-3 0-6 8-8 8-14 0-4-2-7-3-11l-3-13-2-4c0-2 2-2 3-4 1-1 2-3 4-3h2v-2c0-5-6-6-6-11 0-9 7-14 16-17 6-1 10-2 16-5l6-3 12-39-7-6zM158 359c-4 5-4 9-4 15v3l-2 7-3 11c-2 3-5 4-6 7l1 3v5c0 3 3 3 4 5 2 4 3 6 3 10l-1 7 1 4c0 3-4 4-4 7v2l-2 6c-1 2-2 3-4 3h-2l-1 10c0 20 5 30 5 50l-1 12c0 3 4 4 4 7 0 6-3 10-4 16l1 3-2 5c-1 1-4 1-4 3l1 6-2 5c0 4 3 5 3 9 0 2-1 3-3 5l-4 4-4 11v6l-2 3v10c0 3-2 4-4 7l-1 10c-1 3-4 4-7 6-2 3-1 5-2 8s-3 3-5 5c2 2 3 4 3 7s-3 3-5 6c-3 3-2 6-3 11l-2 9c-1 3-3 4-3 8v3l-1 4-6-2 1 2v4l-1 4v6c0 4-4 5-7 5h-3c-2 0-3-2-5-3l-2 7c0 3 4 3 4 5 0 4-4 4-4 7s2 3 3 6c3 4 3 8 3 13v2h2l2-2 1 3v1c-2 0-4 0-5 2v18c2 0 4-1 4 1v2l4 16h60v-4l-2-4c0-4 4-5 7-6l4-3 5-1v-10c-1-2-3-4-3-7l1-7c0-6-5-9-5-15v-4l1-6-1-7v-5l2-2-1-3 1-7-2-5 1-3c2-2 4-3 4-5l-1-4 1-1 2 1V357l-3 2zM89 807l-3 14-3 6c0 3 2 3 2 5v1l-6-3c0 4-6 3-6 7l1 2-2 5-1 8 1 5-1 3c0 3-4 4-4 8l1 4c0 2-3 2-3 4 0 5 3 8 3 13v6l1 6 2 2 4-1-2 5c0 3 5 3 8 3h4c4 0 8-2 8-6v-4l3-1h4c5 0 5 9 10 9l2-3 4-4v1c0 4-3 6-7 8-3 1-6 1-6 4 0 2 1 3 2 3v4h2l6-2 1 1-2 7c0 4 3 7 3 11l-2 5-3-9c0-2 1-5-2-5l-8 1v1c3 2 4 5 6 8l4 6-8-3h-1l-1 1 1 5-1 9c0 2 4 2 4 4l-2 2 2 5-3-3c-2 0-2 2-2 3l-3 8c-3 4-2 6-4 11l8 4-2 4 1 2 1 8-5-4-3 5-2-1h-1v1l1 5c0 3-3 4-3 6s3 2 4 3v5h1l6-2c4 0 2 7 6 7 3 0 3-3 5-5-1 7-3 10-6 15-2 3-1 5-3 6l-5 2c-4 2-6 3-10 3h-2l-1 4c0 2 3 3 3 5v1h-1c-2 0-2 1-3 2 2 3 7 0 9 3l-3 2h-1c-2 0-2 1-3 2-2 1-4 1-4 3l1 6-2 6v2c4-2 5-5 10-6v1c0 3-4 3-6 5-3 1-3 5-5 7l-3 15v1l5-4-8 15c-2 5-5 7-6 12l-1-1c0-5 2-8 5-13l2-4v-4l1-4-2 1-4-1h-1l1 4v2c-1-1-1-3-3-3l-10 1c-4 0-6-3-9-5-1 2-3 2-6 2l-2-1-2 2-5 1c-4 1-4 4-7 6l-8 8c-2 3-6 3-6 6s2 4 4 7c1 2 0 6 3 6s4-2 6-5c-3-2-4-5-4-8 5-3 8-3 12-7l-1 2c0 5 5 9 11 9 5 0 8-3 14-3l1 3 1 4 3 3 5 5v1h-9l-2 2v1c3 0 5 2 8 3l-7 2c-2 1-2 3-3 5l-4 6c2 0 4 1 5 3l1 3c3 3 5 3 9 3-3 2-4 3-7 3l8 3 5 2c4 0 4-4 6-8v3c0 4 8 2 8 6l-2 4 2 1v4c-3 0-3-4-6-5l-1 1 1 4h1l4 6 1 2v2h-3c-1-5-6-6-11-7-4-1-5-3-8-3h-6c-3 0-3-4-5-4-3 0-4 2-6 3l1 2-1 4c3 0 4 1 5 3l-3 2 2 7c3-1 4-4 7-4 0 4 3 6 6 10-4 1-8 2-8 6l1 5-3 3v9l-2-9v-6l-4-4c-1-2 0-4-2-5l-4 2c0-2 0-3-2-4-2 2-5 1-5 4 0 4 1 6 3 10-2 0-4 2-4 4 0 5 3 7 4 11l-3-1c-2 0-3 2-4 4l-2 3 2 5-4 1h-3c-3 1-3 3-3 6 0 4 5 5 5 10v2h-4l-5 1 2 5-1 2v2l1 1 6-6h1l1 5 1 3 8-1v-8c0-3 2-4 3-7v10l1 2-1 6v1c4 0 4 6 7 6 2 0 3-2 4-3 3-3 4-5 4-8v-11l1 1c3 0 3-4 6-6v1l-2 4v5l2-2v1c-1 2-3 3-3 5l1 1 1 3c2 3 5 2 6 5l-8-2-2 1c1 4 3 5 5 9-3-1-3-6-7-6l-2 2-7 7c6 6 15 8 15 17l2 8c2 3 3 7 7 7l3-1v4h-2l-5-1-3 1c-2 1-3 1-3 3l1 2 1 2 2-1v4c0 3 0 8 3 8 2 0 1-3 2-4 0 1 1 3 3 3l3-1 2 4-3-1-2 2 2 1h1c2 0 2 2 2 4l3 6-7-6h-1v2c0 4 5 6 5 10v4l1 1c2 0 3-2 4-3l2 2 2-1-3 3c3 1 3 4 3 6 2 3 3 5 3 9v2c-2 0-2-2-3-4 0-2-2-2-3-3l-1 1c0 2 3 3 4 5 1 3 2 5 5 7l2-3v1l-2 4h2v14l-1-1v2l1 2v2h-3c-2 0-3 0-3-2l3 14-4 1h4l1 7c-2 0-3 2-3 3 2 0 3 2 5 3l1 6c3 5 7 6 12 10s7 8 13 8h2l-3-6c-2 0-4-2-5-4h1l2-2-1-2 2 1c4-1 7-2 9-6-3-1-3-2-5-4l-4-2v-1h2c4 0 6 4 10 4 3 0 4-4 6-5l8-5c5-3 8-7 14-7 2 0 4 2 4 4 0 3-2 3-4 5-2 4-2 6-5 9-2 2-4 2-7 3-3 2-3 5-4 9l1 4c-2 4-4 6-9 8l-1-2c0-2 3-2 4-3 2-1 3-2 3-4l-1-4v-4h-1c-2 0-2 3-2 5l-3 2c-2 2-3 4-6 4l-1-1v-1c3-1 5-4 7-7v-1l-5-1c-3 0-5 1-7 3l1 1c-1 1-2 1-2 3 0 3 2 3 4 6 2 4 4 6 7 8l6 3 2-1c2 0 3 3 5 5l6 2 8 2c6 0 8-5 9-11l-1-15 2-6v-7c0-4 3-6 3-10l-1-2 2-2c2-6 4-9 9-11v1l5-2 19-9h5l3-1 1-5c2-4 5-8 10-8 4 0 6 3 10 4 6 2 9 3 14 3l-6-2-6-2c-3-1-4-4-7-4l-15-3c-6-1-9-4-15-8l-59-1-1 1c-2 0-3-1-3-3v-3c0-2-1-3-3-4l-4-4c-3 0-3-2-4-4 0-2-2-3-4-3 1-2 4-3 4-6v-12l-2-1-1-4c0-5 5-7 5-11 0-3-4-3-4-6l2-7c0-1-1-2-3-2l-3-1c-2 0-3 4-5 4s-2-3-5-3l-2 2c-2 3-4 6-7 6-4 0-3-4-5-7l-1-4-1-63 6-9c2-4 4-6 8-8s8-4 8-8c2-2 1-5 1-8v-4l2-2c2-4 6-6 6-10v-6c0-4-2-6-4-9-1-2-3-2-3-4 0-5 4-7 5-12l5-11c2-2 5-1 7-3l1-4 2 1h1v-7l-1-14c3-4 8-4 8-9v-5l-1-6v-4c0-3-1-4-3-7l-1-1c0-2 2-2 3-2 2-3 4-4 4-7 0-2-3-2-4-3-3-3-2-7-2-11 0-2 1-4 3-4 2-1 3 0 4-2 2-1 0-4 2-6 1-2 5-2 5-4 0-3-3-4-5-7-2-5-2-11-8-11l-3 1c-3 0-7-2-7-5 0-2 3-2 5-2l5-1h4c4 0 7 1 11 3 2-3 1-5 2-8 2-3 4-3 4-6 0-2-2-2-4-4l-5-2-11 1c-2 0-3-2-3-4v-6c0-4 4-6 4-11 0-2-3-3-3-5 0-3 5-4 5-7 0-2-2-2-4-2s-2-2-4-3l-1-2v-4l1-3c2-1 5-1 5-3l-1-5c-3 0-5-2-7-5l-3-3c-3-3-3-6-3-10 0-5 4-8 4-13s-5-7-5-11c0-2 2-2 4-2h6c2 0 3-2 3-4v-5l-2-15v-4l-2-10 2-9-2-9-2-4c0-2 3-2 3-4v-7c0-3 4-3 6-4 0-2-2-3-4-5l-1-7v-2h5l2-7c0-4-3-6-3-10s7-2 8-5c1-4 3-7 3-11v-5H87l2 7zm-3 580v6c-1-4-3-7-3-13v-2l1-1 2 10z"/>
	<path d="m279 1550-2-1-8 1c-5 0-7-3-12-3l-15 2-6 2v-120l-4-8-7 4-6 3c-2 0-2-2-3-4l-4-6-3-2-5 1-1 2v8c0 3-3 4-5 6-1 2 0 4-2 4-4 0-6-2-8-5-1-1-1-3-3-3l-2 1-2-1-1 1c0 2 4 3 4 5l-1 1c0 2 3 2 5 2v5c0 2-2 3-4 3s-3-2-5-3l-2 8c2 4 0 7 0 11 0 2 3 2 4 3l3 2c5 0 6-3 10-4 6-2 9-2 15-2 3 0 6 3 6 6 0 4-4 4-7 6l-7 4c-5 2-8 5-14 6v4c0 4 3 7 3 12 0 4 5 5 9 7 7 4 12 5 18 10 3 3 7 4 7 8l-3 1h-1l-1 3v2l-3-3-2 3-1-4 2-3-4-4c-2-3-5-2-8-2s-4-3-7-3c-2 0-1 4-3 4-3 0-2-6-4-6s-4 0-4 2l-2 2c-2 0-3-1-4-3l-8-4v-1l3 1 1-1-1-2-2-3 2-4 4 2-1 1c0 1 0 3 2 3 1 0 3-1 3-3l-2-5c-2-5-5-8-5-13l2-8-4 4c-2 1-4 0-4 2s1 3 2 3c0 3-1 5-3 5h-3v3l-4 2h-3l-5 2-6-1-4 1c-2 0-2-4-4-4l-2 1c-3 0-4-3-7-3s-3 5-6 5l-5-2h-2l-3-1 2-2-1-1v-1l2-1 2 1 3-1c0-3-3-3-6-5l-1-1-2 3-1-4 2-3h-1c-3 0-3-3-5-3-3 0-2 3-2 5h-1c-3-3-1-8-5-11v13c-3-6-3-9-4-15l-1 4c0-2-2-3-1-6h-1c-2 0-2 2-2 3v4l-2-1-1 1h-1c-1-1-2-3-4-3v1c2 2 4 5 4 9l-1 1-3-6c-2 1-4 0-6 2l-1 3h4v4l3-1h3v4l-1 4 2 2-1 3c3 1 3 4 7 4v-1l-1-4c0-3 1-4 3-6l2 2c2 0 2-3 5-3 1 0 1 3 3 3-1 2-3 3-3 5v5l-2 2v1h2c2 0 3-3 5-3 5 0 7 0 11 2l1-2 4 2 3-1c0 3 2 4 3 6s0 5 2 5l4-1c-2-4-4-5-5-10h1l3 3c1 2 3 2 4 5 1 2 2 4 4 4s2-2 2-3h1c1 3 5 3 5 6 0 2-2 2-4 3l-4 3h-3c-2 1-1 4-3 4s-2-4-4-4c-4 0-4 5-4 9h1l3 3 5 2c5 0 8-2 11-6l4 5 7-3v1l-2 5v1h6c0 2 1 4 3 4l4-1c4 0 6 0 10 2 2 0 2 2 3 2h4l13-2h5v1c-4 2-8 2-13 3-2 0-6 0-6 3 0 4 8 2 8 6l-2 4 1 2 2 2h1l-1 2v1h3l3 4c3 3 6 2 8 5 2 2 2 4 4 4l7-1c-4-4-5-7-5-12l2-1 2 1h6v1l-1 2v5c0 4 3 6 7 6 3 0 6-2 7-5 0 1 1 3 3 3h4l2 3c0 1 2 1 2 3l-1 1 1 1 2-1c3 0 1 4 3 7l1-4 1-3c0-3-4-4-4-6l-2-2c-1-6-8-5-13-7l4-1 6-3c-3-3-9-2-9-6v-2l1-1c3 0 4 4 7 4h1v-2c0-8 2-1 3 2l2 3 7-2c3 0 3 3 6 3l2-3c1-2 3-1 6-1h1v6l1-1 3 1c4 0 6-5 6-9l-2-4c-2-3-3-5-3-8zM83 1378v2c0 6 2 9 3 13v-6l-2-10-1 1zm1 46h3v-2l-1-2v-2l1 1v-14h-2l-4 17c0 2 1 2 3 2zm77-1080v3-5 2zM41 1397h1c2-2 6-2 6-5l-2-1c-2 1-4 3-5 6zm-12-295 2 2c2 0 2-3 4-3 4-1 4-5 5-9l-4 2-2-2-1 1 3 2h-4l-2-2h-2v1l6 4c-2 1-5 2-5 4zm25 84h-5c2 2 3 5 6 5l4-1h3l3-3-5-1-4-2h-1l1 3-2-1zm-14 16-1-1v4l-1 3 1 5 1 1 3-2c-2-2-3-4-3-7v-3zm8-28-1-3-4 2 3 2 2 2c2 0 3-2 3-4l-2-2-1 3zm37-139 1 2-2-2-1 2 1 2-1 2 1 1h3c-1 2-6 1-6 3s2 4 4 4h4c3 0 3-4 6-6 2-1 5-2 5-4s-5-2-5-4l2-9-2-1v5h-1l-2-2-1 1-2-3-1 1c0 3 2 4 4 6h-4v2h-3zm-15 35 1-2c0-2-2-2-4-3h-2l-5-1h-2c3 2 4 4 4 7v4h4l1 4 3-6 1 6v5h1c2 0 2 1 3 2l1-1-1-3 1-8c-3-1-6-1-6-4zm3 28-1-4c-1 0-1 2-2 1l-2-2h-2v9l4 4c1-1 3-1 3-3l-1-2 1-3zm10-171c-2-2-1-4-2-6s-4-3-4-5v-4c-2 1-3 0-4 2-1 1 0 4-2 4-3 0-4-3-6-3s-2 2-2 3l-2 1 2 5c0 4-5 4-5 8v2l-1 5 2 12c0 7-2 10-5 15-1 3-3 5-3 8v2c4 0 5 4 9 4l2-1 6 2h3c0-2-1-2-2-3h1l2 1 1-2-1-3v-4l5-1v-1l-1-2 1-1-2-6v-2h1l2 1h1l1-1c0-1-2-1-2-3-2-2-5-2-6-5l1-1-2-5 1-1c2 0 2 4 4 6v-1c0-3-3-5-3-8 0-2 2-4 4-4h4c3 0 6-1 6-3 0-3-3-3-4-5z"/>
	<path d="M100 1035c2 0 4 0 4-2l-2-2-1-3h-1l-2 3-2 2c0 2 3 2 4 2zm-59 145 2-1v2h1l3-2-4-3-2 4zm-25 148c0 1 2 3 4 3s2-3 3-5l5-8-3-2-4 2-3-2 1 3c0 1-3 1-3 3v6zm68 175 2 3c2 0 1-2 1-3l-1-2h-2c-1 0-2 0-2 2l1 1 1-1zm-67-194h1l3-2 3-2v-1l-5-2-2 7zm94 210v2l3-1h2l-1-3-4 2zm-78-190 4 2c2 0 2-4 3-6-3 1-6 1-7 4zm52 76c-2 0-3-3-6-3v2c-2 1-4 0-4 2l1 3-1 5 1 1 1-1 1 1-1 2v1h1l-1 2 1 2c-1 0-3 0-3 2l1 1c0 2-3 3-3 5v1l1 1c2 0 2-2 3-4h4v-6l4-17zm87 148-6-2-2 1-2-1c-2 0-2 3-2 5s3 2 6 2c1 1 1 3 3 3l4-2 1 4 2 3 2-2h3v-1l-1-2 2-2v-2h-5v-1c0-2 2-2 3-2l2-5c-2 0-3-1-3-2l-6-1-4 1c2 2 4 1 6 2-1 1-1 4-3 4zm-56-42 1 1h1l-1-6-4 6 1 1 2-2zm41 40 1-1-2-3-5-2c-2 0-4 2-5 4h1l3-1c3 0 5 1 7 3zM41 1106l3-2-1-2-4 1v1l2 2zm3-20 1-6-2 3v3h1zm-7-96c0 2 0 3 2 3l3-2c1 0 3 1 3-1 0-3-8-3-8 0zm9 46-2 2v1l4-1v-1h-1l-1-1zm14-36-1 2h2c2 0 2 2 4 3v-2c0-2-3-3-5-3zm6 13-2 2h3v-2h-1zm-10 22v2l-2-1c-2 0-2 2-2 3v1h4l-3 2 1 1c4 0 7-2 8-5l3 1v-1c0-4-5-2-9-3zm8 51h3v-6l-6-1 1 4 2 3zm-27 252-1 1 2 1h5l-2 5 1 1 2-3c2-1 5-1 5-3v-3l1-3h-2v-1c0-3-2-4-4-5v1l2 4-1 3v1l-4 2-3-1h-1zm38-296-4 1 2 4c1-1 3-2 3-4l-1-1zm-31 59 1 3c3 3 6 6 10 6s7-3 7-7l-1-3 1-2c0-2-3-2-5-3l3-4h-1l-3 3-5-4-1 3 1 2c0 2-1 3-3 4h-1l1-3c0-2-2-4-4-4-3 0-3 4-3 7l3 2zm4-60 4 5v-1l-2-2-2-2zm2 46h1l1-3c1-1 5 0 5-2l-3-2 1-2-2-1v-2l-1-1c-3 0-2 3-4 5l2 1-1 2 1 5zm13-35 1-2-5-2c-4 0-5 2-6 5l1 1 4-2 1 1-1 2c0 4 5 4 7 7l-2 1 7 1h1v-3l1-6-6-1c-1 0-3 0-3-2zm-12 4-1 2 4 2v-2c-1-1-1-2-3-2zm21-15c1-2 3-3 3-6h-1l-2-2-2 1 1 2-1 2c0 2 0 2 2 3zm-8 2-3 1 2 4 1-5zm-9-15v-1l-4 2-3-1v1l1 2h2c1 0 1 2 3 2l2-1 1-1h-4l2-3zm-8 40 6 3c0-2-1-5-3-5s-2 1-3 2zm5-7-1 1 2 4 1-3-2-2z"/>
	<path d="m59 1089-2-2c-2 0-4 0-4 2v1l1 1 5-2zm-29-42-1-1-1-2h-1v2l2 3 1-2zm2 301v3h1l3-1v-1l-4-1zm33 10-1-4-4 1 2 6 3-3zm-8 18v1c0 2 1 2 2 3l4 2h2v-2l-3-1 1-4-1-2h-1c-1 2-2 4-4 3zm19 77-2 1-1-3-3-1c0 2 2 2 3 4l4 2v2l-1 1v1h3l-2 2 1 1 3-1 3 2h6c-2-3-4-3-8-4l2-2-1-1-1 1-1-4h-2l1 3v2h-1l-1-3-2-1 1-2h-1zm-29-132c0 4 1 8 6 10v-4l1-1v-2l-1-3-2-2-4 1v1zm5-5c0-2-3-1-3 0l2 1 1-1zm10 134 5-1v-2l-3 1v-3h-1l-2 1-5-2c-2 0-6 0-6-3l1-2h-2c-1 0-3-1-2-3l-6-4v1c2 3 4 5 3 8h3l1 2 3 4 1-1c2 0 2 1 3 2l6 3-1-2 2 1zm-16-138-2 3 2 1h1v-1l-1-3zm10 151h1l1-2 2-2c-2 0-3 2-4 4zm23 8-1-3-1 1c0 3 1 6 3 6l2-1-2-3h-1zm2-28h1l1-1c0-2-3-3-5-3 2 0 3 2 3 4zm-12-26h-3c0 4-5 5-5 9 1-1 2-3 4-3h1c0 2-1 2-2 3l1 1 1-2v1l-1 3 2 1c3 0 3-3 3-5l-2-2h2c2 0 2-3 2-5l-1-3-2 2zm-41-124-2-1-3 4-2-4h-1v2c0 2 0 4 2 4h5v6l-2 4v1l-1 4c2-1 1-4 3-5 2-2 5-3 5-6l3-1-2-1-3 2v-2c-1-1-3-1-3-3l1-3v-1zm0-101c0 2 3 4 6 4h1v-2c-3 0-4-3-5-5-1 1-2 1-2 3zm-4 5v1c0 2 2 2 3 4l2 5h-2v1c2 1 2 3 3 6 2-2 5-3 5-5 0-3-3-3-3-5v-1h2l-3-4-3 1c-2 0-2-2-4-3zm13-11h-1c-2 0-4 1-4 4l3 3h1v-2l-1-1v-1l2-3zm-23 27h1c3 0 3-3 6-4l2-2-2-3v-2c-2 2-1 3-1 6-1 2-4 2-6 5zm18 178c-1 1-3 1-3 3l3 1 2 3v-3l2-5-4 1zm-5-173-2-1c-2 0-2 2-2 4l1 2-1 2 3 4h-2v1c0 2 2 2 3 3v-3l2-6c0-2 0-4-2-6zm-16-2-2 1v5l3 2c2 0 3-2 5-3v1c-1 2-3 2-4 5h1l2-2c2-1 4-1 5-4l-1-2h-1v-2l-3-1h-5zm8-20-1 1h-1l-1 2-1-3-1 2 1 7 2-3 1 1 1-2v-5zm3 17h3v-1l-3-3v4z"/>
	<path d="m12 1252 2 3c4-1 5-5 8-8l3-6 2-5v-1h-1c-2 0-2 2-3 2l-3-2-2-1c0-3 3-4 3-7l-1-1c-3 2-4 3-8 3v1l3 2c-3 2-5 4-5 7 0 2 2 3 3 4h-2l1 5-1 2 1 2zm42 149-1-2-3 2 1 1 3-1zm15 10-2 1 2 2h2v-1l-2-2zm0-15-3-2c-1-3-2-4-5-5l2 7c4 0 6 3 7 7h1c-1-2 0-5-2-7zm-13 10 2 8h1l2-2 2-4c2 0 3 2 5 3l1-3c0-2-2-3-3-4l-4-3-1 1 1 2v2l-2-2-1 1v1l-2-1-1 1zm11 47 2 3c-1-2-1-5-3-5h-1c0 2 1 1 2 2zm-14-69c-1-2-1-5-3-5l-1 1 1 3c1 2 0 3 2 5 2 1 3 0 5 2h1l-1-2v-2c0-2-3-1-4-2zm-12-75-1 5v1c2-1 6-2 5-5l-4-1zm29 80-2 2 2 3 2-2-2-2v-1zm-12-31h-3c0 2 1 2 2 3l1 2 2-1-2-4zm8 24-1 3 1 2h1l1 1 1-1c0-2-2-3-3-5zm-23-30c-1 1-3 0-4 2-1 0 0 2-2 3s-4 1-4 3l3-2h1c-2 2-4 3-4 6l3-2 3-3c1-2 1-4 3-4l3 1v-2l-2-2zm-16 12 4-4-3-3c-1 2 0 3-2 4 0 1-2 1-2 3l1 3c0 2-3 3-3 5v1l1 1c2 0 3-4 3-7v-2l1-1zm16 41c0-2-3 1-5 2l-2-1v1l4 3c1-2 3-3 3-5zm8-55-5-4v3l4 2 1-1zm-21 38 2-6v-3h-1l-3 2 1 7h1zm7 10h1c1-2 0-4 2-7l3-3-3 1v-3h-1v7l-2 5zm6 1c-2-1-3 1-5 2l1 2 4-4zm-5-20v-3l-4-2v1c0 2 2 3 3 4h1zm126-600c0-3-2-5-3-7v10c1 0 3-1 3-3z"/>
</svg>
