<?xml version="1.0" encoding="utf-8"?>
<!DOCTYPE svg PUBLIC "-//W3C//DTD SVG 1.1//EN" "http://www.w3.org/Graphics/SVG/1.1/DTD/svg11.dtd">
<svg id="Chile" version="1.1" xmlns="http://www.w3.org/2000/svg" xmlns:xlink="http://www.w3.org/1999/xlink" x="0px" y="0px" viewBox="0 0 296.4379 1600" enable-background="new 0 0 296.4379 1600" xml:space="preserve">
<style>
g > path {
	fill: #fff;
	stroke: #fff;
	stroke-miterlimit: "10";
}
</style>
<g>
	<path d="M280.9377,184.0911c-2.8447,0.9478-5.0571,2.186-7.2958,3.1868
	  c-2.239,0.9745-4.5038,1.7381-7.5067,1.7381c-1.6853,0-3.134,0.3164-4.24-0.8951c-1.6333-1.7387-1.1328-3.6877-1.9231-5.9788
	  c-1.2378-3.6087-1.949-5.7419-2.476-9.5084c-0.7108-4.9513-0.3948-8.0858-2.2911-12.6949
	  c-1.1062-2.6602-2.4231-4.0035-2.6338-6.8743c-0.6321-8.1124-2.8184-12.3525-3.7137-20.4385
	  c-0.3424-3.5032,0.3951-6.7427-2.476-8.639c-4.1614-2.792-10.219-3.055-10.219-8.1121c0-0.9745,0.9741-1.2382,1.6062-1.9493
	  c1.0012-1.3693,2.1599-2.1593,3.5033-3.1605c-3.7662-3.7926-9.1656-4.8989-9.1656-10.219c0-1.8966,2.4756-2.3445,2.4756-4.2407
	  c0-3.1605-1.4487-4.9777-3.687-7.2167c0.553-0.5794,1.0005-0.8954,1.7908-0.8954c0.9745,0,1.5015,0.1843,2.4756,0.1843
	  c1.7124,0,2.6338-0.4476,4.3462-0.7112c-0.3954-4.7935-2.7656-7.1903-5.9788-10.7459l9.1656-10.4039
	  c-2.9502-5.9521-9.0865-5.1094-13.4064-10.0347c-1.0797-1.2905-2.6339-1.7648-2.6339-3.4765v-5.5577
	  c0-2.739-1.3696-4.0558-2.6339-6.4791c-2.1594-4.1086-2.1331-6.9266-3.1868-11.4571c-0.3948-1.8439-1.5802-2.6862-1.5802-4.5828
	  c0-1.712,1.7648-2.3442,1.7648-4.0559c0-1.4487-2.1599-0.843-3.5295-1.2382c-2.2915-0.7108-4.0034-1.8962-4.5829-4.2404
	  c-1.106-4.4774-2.423-6.5845-4.5829-10.9041c-2.8971,1.4484-4.1876,3.5029-7.4011,3.5029c-1.106,0-1.7118-0.5267-2.8181-0.5267
	  c-0.316,0-0.4478,0.316-0.7108,0.3688c0.3948,4.5829,1.0532,7.1639,1.0532,11.7995c0,7.0852-7.1639,11.2729-14.2751,11.2729
	  c-1.5278,0-2.7393,0.3688-4.188,0.8427c1.3433,2.2917,1.7384,4.978,1.7384,8.1651c0,1.9754-0.7112,3.0814-0.7112,5.0568v4.6619
	  c0,2.2914,1.1063,3.5296,1.396,5.7679c0.5266,3.7665,0.1052,5.9261,0.5266,9.719c0.6584,5.6365,3.1873,8.6127,3.1873,14.2755
	  c1.5273,4.6092,2.6338,7.2958,2.6338,12.1416c0,6.4531-3.5295,9.7454-3.5295,16.1721v4.5038
	  c0,7.5327,3.9243,11.4047,3.9243,18.9371v8.7445c0,1.2642-1.0532,1.7381-1.4487,2.9499
	  c-0.9741,2.9762-0.1838,5.0043-0.8687,8.0857c-0.8958,3.898-1.9491,6.0579-1.9491,10.0087v3.6083
	  c0,6.1367-0.5797,9.6663-1.9493,15.6451c-0.869,3.9771-0.9218,6.3473-2.1069,10.2189c-0.5793,1.8963-0.3163,4.5829-2.2916,4.5829
	  c-1.5011,0-2.0282-1.3433-3.5289-1.58c0,3.2132-2.9766,4.5038-2.9766,7.717c0,2.502,0.1582,3.7134,0.1582,6.2158
	  c0.1055,0.5269,0.1318,0.869,0.1846,1.3956c1.3169-0.6844,1.4484-2.6338,3.0022-2.6338c2.3179,0,2.9763,2.9502,2.9763,5.294
	  c0,5.1889-3.6084,7.6121-3.6084,12.8271v11.0092c0,5.0571-2.3701,7.7433-2.3701,12.8271c0,8.0593,4.9248,11.9837,4.9248,20.0431
	  v4.8465c0,1.9226-0.6848,3.1341-1.7644,4.7147c-0.7375,1.1323-0.8694,2.8181-2.2917,2.8181c-1.0532,0-1.3958-1.2382-2.4492-1.2382
	  c-0.9219,0-0.6321,1.3696-0.6321,2.2917c0,4.0562-2.0281,6.1631-2.0281,10.2189c0,2.5287,3.1868,3.1345,3.1868,5.6368
	  c0,2.8705-1.2378,4.3719-1.2378,7.243c0,3.1605,0.4478,5.004-0.1843,8.1121c-0.9218,4.6092-2.7656,6.6897-3.6874,11.4571
	  c-0.6584,4.741-0.1318,7.6906-1.7645,12.142c-0.8258,2.2802-2.5745,3.4607-3.4092,5.2701v5.1572
	  c0.5151,1.7903,1.2756,3.3387,1.2756,5.6127c0,1.8175,0.843,3.4505-0.5266,4.5828c-0.2466,0.2056-0.4976,0.3688-0.749,0.5182
	  v334.1016c0.1818,0.0503,0.3728,0.0877,0.5908,0.0877c2.5021,0,2.7656-3.7138,5.2677-3.7138c0.7112,0,1.0797,0.3688,1.7645,0.3688
	  c0.9749,0,1.7646-0.7901,1.7646-1.7646c0-3.3978,1.7649-5.0571,2.2915-8.4547h2.0808c1.3696,0,1.8435,1.1852,3.2131,1.396
	  c0.7112-2.1072,0.8694-3.4767,0.8694-5.7156c0-1.5538-0.6848-2.423-0.6848-3.9771c0-1.9754,1.7645-2.7655,1.7645-4.7673
	  c0-2.2914-1.9491-3.2396-1.9491-5.5309c0-2.0281,0.7112-3.187,0.7112-5.215c0-0.8165-0.7112-1.238-0.7112-2.0544v-5.0306
	  c0-2.2125-2.0281-2.7655-3.345-4.5303c4.0562-3.0552,5.1099-6.4001,6.5055-11.2991c0.6322-2.107,1.9491-2.9763,2.476-5.1096
	  c1.0537-4.3195,1.554-6.8217,3.345-10.9305c1.1592-2.6339,3.0027-3.9507,3.0027-6.8743c0-1.0798-0.7112-1.7119-0.7112-2.8182
	  c0-0.2897,0.316-0.395,0.3688-0.6849c2.9498,0.2899,7.2167,0.6585,7.2167-2.2914c0-8.1649-2.1069-12.6951-2.1069-20.8599
	  c0-0.6057,0.0789-0.9218,0.158-1.5276c0.8163-3.2659,2.6599-5.294,2.6599-8.6389c0-3.6083-3.1342-4.8989-3.7136-8.4547
	  c-0.8694-5.3729,0-9.0076-2.6338-13.7485c-1.5802-2.9237-4.7673-3.8455-4.7673-7.1905v-3.9769
	  c0-5.3204-4.2137-7.2958-5.1095-12.6426c-1.1061-6.7426-2.1863-10.4035-4.5829-16.7247c-0.9221-2.5549-3.1604-3.582-3.1604-6.3213
	  v-4.6617c0-3.2134,0.8427-5.0307,1.0532-8.2439c0.1318-2.3442-0.2633-4.2142,1.396-5.8209
	  c0.9746-0.8692,2.2651-0.0789,3.5295-0.5268c1.7645-0.6584,1.6854-2.5547,1.9491-4.3984
	  c1.3169-9.2184,2.3439-14.4861,6.5055-22.9144l2.0281,0.3424c4.0559-0.4213,8.033-2.5547,8.033-6.611
	  c0-3.1078-2.3705-4.3193-3.3447-7.2956l1.2378-4.0562c-0.4478-3.661-2.2916-5.4782-2.2916-9.1129v-3.4503
	  c0-2.6076-2.6603-3.5294-2.6603-6.1369c0-1.7384,1.4224-2.423,2.1335-4.0298c0.7375-1.7381,0.5267-3.4505,2.1072-4.4247
	  c1.2643-0.7903,3.0815-0.1582,3.5293-1.5806c0.79-2.6075,0.0264-4.3983,0.6848-7.0585c0.5006-2.0545,2.2915-2.8184,2.2915-4.9252
	  c0-1.5012-1.2114-2.2123-1.2114-3.6874c0-2.7393,2.4492-3.7135,2.9758-6.3473c0.4479-2.1336-0.1578-3.4505,0-5.6631
	  c1.1063-0.1315,2.0017,0.2636,2.8184-0.3421c1.2114-0.9221,0.6321-2.5023,1.7644-3.5295c0.843-0.7375,1.7651-0.4212,2.8185-0.8691
	  c2.8711-1.2382,2.2914-4.3723,3.5295-7.243c0.5004-1.1854,1.9755-0.9481,2.818-1.923c2.0806-2.3965,3.1345-4.0031,3.8981-7.0585
	  c1.5802-6.3473,4.2668-9.2448,6.5055-15.329c0.7639-2.0806-0.3951-3.5817,0.3424-5.6362
	  c0.6848-1.7648,1.7384-2.4232,2.6603-4.0562c2.1072,0.7112,2.8975,2.4756,5.1094,2.4756c4.1353,0,6.7955-1.2906,9.877-4.0559
	  c0.2637-1.0536,0.8694-1.8966,0.8694-3.0026c0-1.8962-1.396-2.6865-2.4757-4.2404c-2.1599-3.1608-3.2924-5.0043-5.7946-7.9279
	  c-1.1064-1.2642-2.8181-1.6329-2.8181-3.345c0-6.1104,7.5588-7.6118,7.5588-13.7485c0-4.6356-2.2385-6.927-3.1605-11.4572
	  c-1.027-4.8992-0.9218-7.796-2.4757-12.5107c-0.5793-1.8172-1.9226-2.6339-1.9226-4.5828c0-1.5015,1.4749-1.949,2.291-3.1605
	  c1.2119-1.8702,2.0018-3.8984,4.2672-3.8984c0.7903,0,1.2642,0.1055,2.0544,0.1055c0.1051-0.7639,0.1842-1.1591,0.1842-1.8966
	  c0-4.8458-6.1631-6.0313-6.1631-10.9037c0-8.7972,7.0586-13.9067,15.5129-16.3824c6.374-1.8439,10.2197-2.3708,16.3824-5.1098
	  c2.6078-1.1327,3.5295-3.2923,6.348-3.5292l11.7994-38.5857C285.9945,187.2516,283.8872,186.2771,280.9377,184.0911z"/>
	<path d="M158.0955,359.4515c-3.6079,4.504-4.3982,8.323-4.3982,14.0909c0,1.1851,0.6848,1.8172,0.6848,3.0026
	  c0,3.1345-1.396,4.7144-2.1072,7.7437c-1.0533,4.4246-1.317,7.1112-3.6873,10.9301c-1.8174,2.9238-4.4249,3.6087-5.4785,6.8746
	  l0.6057,3.0023v5.1622c0,2.3708,3.0027,2.4496,4.1616,4.5305c2.0281,3.7136,2.6339,6.3475,2.6339,10.5879
	  c0,2.5022-0.8694,3.8191-0.8694,6.3213c0,1.8173,1.0536,2.7918,1.0536,4.5828c0,3.1079-3.7139,3.9771-3.7139,7.0587
	  c0,0.8428,0.1055,1.2905,0.1055,2.1072c0,2.3967-0.6321,3.898-2.0281,5.8207c-1.3696,1.3696-2.3438,3.187-4.2405,3.187
	  c-0.8425,0-1.2378-0.5269-1.949-0.8956c-0.6848,4.2405-1.0535,6.532-1.0535,10.7461c0,19.4113,4.7673,30.1574,4.7673,49.5424
	  c0,4.7673-0.8694,7.4011-0.8694,12.1683c0,3.1606,4.3987,3.6874,4.3987,6.8743c0,6.5057-3.266,9.6925-4.0559,16.1982l0.7108,3.187
	  c-0.3951,1.791-0.3688,3.2396-1.7648,4.3984c-1.4221,1.1326-3.5289,1.317-3.5289,3.1606c0,2.5284,0.8688,3.8453,0.8688,6.3475
	  c0,2.2125-2.1069,3.0815-2.1069,5.294c0,3.4767,2.8181,4.978,2.8181,8.4547c0,2.2123-1.3696,3.5292-3.1605,4.7672
	  c-1.9491,1.3169-2.1335,3.3448-4.0563,4.7672c-1.0532,4.2141-3.0022,6.2947-3.7134,10.5615
	  c-0.3428,2.1598,0.4475,3.4505,0.1842,5.6365c-0.1842,1.6329-2.4232,1.8701-2.4232,3.4766v9.9822
	  c0,3.1081-2.3702,4.3195-3.5817,7.1641c-1.3433,3.345-0.2109,5.8997-1.396,9.35c-1.1854,3.424-4.0563,4.0562-6.5319,6.6901
	  c-2.239,2.4231-1.6597,4.9778-2.8184,8.1121c-0.8694,2.3705-2.8972,2.7393-4.741,4.5829c2.239,1.6857,2.8184,3.8718,2.8184,6.69
	  c0,2.9235-2.792,3.7136-4.7675,5.8207c-3.0287,3.2134-1.7645,6.7426-2.4757,11.1149c-0.6057,3.8191-1.1323,5.9525-2.1072,9.6924
	  c-0.7903,3.029-3.7134,4.056-3.7134,7.1639v3.6347c0,1.6594-0.527,2.5813-1.054,4.1879
	  c-2.0278-1.0272-3.0287-1.8173-5.1095-2.6602c-0.0264,0.3161-0.3422,0.3951-0.3422,0.7112c0,0.8692,0.8689,1.1852,0.8689,2.0806
	  v3.9507c0,1.4224-0.6849,2.2125-0.6849,3.6083v6.4529c0,3.345-3.7662,4.8725-7.1112,4.8725h-3.4241
	  c-2.1333,0-2.3965-2.502-4.451-2.9761c-0.4475,2.7655-2.4757,3.898-2.4757,6.6899c0,2.6339,4.3984,2.5547,4.3984,5.1886
	  c0,3.2661-4.5829,3.7137-4.5829,6.9797c0,2.6339,2.6865,3.2396,3.8981,5.6365c2.2917,4.6092,2.6338,7.8224,2.6338,12.9847v1.8174
	  h1.3696c1.2642,0,1.712-1.1589,2.8711-1.5804c0.6057,0.9219,1.0532,1.6068,1.0532,2.7657v1.4485
	  c-2.2123,0-4.5037-0.7112-5.4783,1.2379c-0.5269,1.1063,0.1843,1.949,0.1843,3.1606c0,3.187-0.5266,4.9516-0.5266,8.1122
	  c0,2.8182,0.5266,4.4248,0.8694,7.243c1.501,0.158,3.7134-0.6321,3.7134,0.8692c0,0.711-0.3684,1.1587-0.3684,1.8435L86.8989,800
	  h59.7998c0.1359-1.3344,0.4666-2.3537,0.4666-3.8856c0-1.8438-1.949-2.4758-1.949-4.3194c0-3.3977,3.4504-4.3986,6.5319-5.8208
	  c1.8436-0.8428,2.5548-2.3705,4.5829-2.6339c1.5475-0.2192,3.3075-0.428,4.7031-0.959v-10.2578
	  c-1.291-2.15-2.5959-4.2906-2.5959-7.2991c0-2.7391,1.0532-4.2404,1.0532-6.9532c0-6.0841-5.6361-8.4283-5.6361-14.5124v-4.662
	  c0-2.107,0.7112-3.2132,0.7112-5.3204c0-2.8444-1.0538-4.4248-1.0538-7.243c0-1.9753-0.2631-3.3448,0.7112-5.0305
	  c0.4214-0.7901,1.396-1.1326,1.396-2.1071c0-1.2643-0.8691-1.8964-0.8691-3.1606c0-2.5285,0.8691-3.8454,0.8691-6.3474
	  c0-2.0809-0.9219-3.0817-1.396-5.1097c0.3427-1.5013-0.2371-2.8709,0.8694-3.8718c1.7644-1.6329,3.8716-2.5285,3.8716-4.9516
	  c0-1.3958-0.6848-2.107-0.6848-3.5292c0-0.5268,0.2109-0.9219,0.3424-1.396c1.0199,0.0652,1.5621,0.7308,2.4117,0.9659V357.4938
	  C159.9965,358.1104,158.9438,358.3915,158.0955,359.4515z"/>
	<path d="M88.6416,806.9395c-0.922,5.6099-0.843,8.8233-2.6338,14.1173c-0.8958,2.5811-3.345,3.5556-3.345,6.3475
	  c0,2.1071,2.1597,2.6865,2.6338,4.7408l-0.1846,0.7112c-2.3701-0.7901-3.4764-1.6857-5.7942-2.8182
	  c-0.5793,3.5294-6.0052,3.345-6.0052,6.8742c0,0.8429,0.5266,1.2644,0.5266,2.1072c0,1.949-1.0533,2.8708-1.3956,4.7672
	  c-0.6584,3.1605-0.448,5.1096-1.2383,8.2701c0.1318,2.0809,1.054,3.1343,1.054,5.2151c0,1.1852-0.7112,1.7646-1.5806,2.5547
	  c0,3.3978-3.7134,4.5303-3.7134,7.9279c0,1.8174,0.895,2.7655,0.895,4.5829c0,1.6857-2.4756,1.8437-2.4756,3.5294
	  c0,5.3202,2.2917,8.1912,2.2917,13.5115v5.4783c0,2.4232,0.6057,3.9245,1.7644,6.0316c0.4739,0.9745,0.843,2.1071,1.949,2.1071
	  c1.4487,0,2.1335-0.7902,3.5032-1.2116c-0.922,1.8437-1.765,2.9498-1.765,5.0043c0,3.187,4.3726,3.0815,7.5331,3.0815h4.5828
	  c3.7135,0,7.8225-1.791,7.8225-5.5046v-4.5303c0.9484-0.9745,1.9753-1.2379,3.3713-1.2379h3.7925
	  c5.1099,0,4.4514,8.9813,9.5613,8.9813c1.3433,0,1.5535-1.3696,2.4756-2.2914c1.5538-1.5276,2.2914-2.4494,3.8716-4.056
	  c0,0.316,0.1846,0.4477,0.1846,0.7637c0,4.3196-3.7137,6.4793-7.77,7.8752c-2.7125,0.9219-5.9785,1.6066-5.9785,4.5039
	  c0,1.5802,1.3169,2.8972,2.8969,2.8972V920.8h1.4751c2.423,0,3.6874-1.238,5.847-2.2914
	  c0.3951,0.5268,0.7112,0.9745,0.7112,1.6857c0,2.5547-1.2378,3.8716-1.2378,6.4264c0,4.6356,2.2914,7.0061,2.2914,11.6417
	  c0,1.8963-0.869,2.8444-1.5802,4.5828c-2.0281-3.0553-2.0017-5.3729-2.6602-9.0076c-0.3953-2.1598,0.2632-5.2677-1.9227-5.2677
	  c-3.3186,0-5.0834,1.1062-8.2966,1.7646l-0.1578,0.6848c3.1077,2.3442,4.2137,4.5828,5.9785,8.1121
	  c1.1591,2.3442,2.7393,3.1343,3.8721,5.4785l-7.7437-2.6602l-1.4224,0.1844c-0.0789,0.316-0.3425,0.5268-0.3425,0.8692
	  c0,2.1334,1.0537,3.2659,1.0537,5.3994c0,3.5031-1.3958,5.3731-1.3958,8.876c0,2.1334,4.2137,1.4224,4.2137,3.5294
	  c0,1.1852-1.7645,1.2905-1.7645,2.4758c0,2.0279,1.1061,3.0815,1.2379,5.1096c-1.1852-1.0536-1.3698-3.0026-3.0026-3.0026
	  c-1.1852,0-1.1852,1.554-1.5803,2.6602c-1.106,2.9763-1.1851,5.1096-3.0026,7.7435c-2.5548,3.74-2.3177,6.6109-4.0559,10.9303
	  l7.7697,4.583c-0.5793,1.3958-1.7648,1.9753-1.7648,3.5292c0,0.9218,0.869,1.238,1.0536,2.1071
	  c0.5793,2.9236,0.0527,4.7936,1.0536,7.5854c-1.8439-1.3695-2.7656-2.8182-5.1097-3.1869
	  c-0.7112,2.1334-1.5276,3.3185-3.1605,4.7673c-0.5002-0.7112-0.9745-1.1063-1.7645-1.396l-1.238,0.158
	  c-0.0527,0.5795-0.1843,0.8956-0.1843,1.4485c0,1.8964,1.7645,2.6602,1.7645,4.5566c0,2.8444-3.3451,3.6609-3.3451,6.5055
	  c0,1.7646,2.8185,1.2116,3.5297,2.8182c0.7375,1.7646,0.4475,3.0552,0.869,4.9515l0.7112,0.1581
	  c2.1597-1.0536,3.3975-2.1071,5.8207-2.1071c3.6083,0,2.3705,7.0586,5.9789,7.0586c2.6074,0,3.0553-2.8708,4.5828-4.9515
	  c-1.0535,6.3475-2.6862,9.6661-5.9785,15.1709c-1.238,2.1071-0.8958,4.1876-2.8184,5.6364
	  c-1.6857,1.2379-3.2659,0.7639-5.1094,1.7646c-3.5824,1.9753-5.9526,3.1606-10.0615,3.1606c-0.5266,0-0.9481-0.1318-1.396-0.3423
	  c0,0.3159,0.1846,0.4476,0.1846,0.7637c0,1.4749-1.4224,2.1597-1.4224,3.6348c0,2.1333,3.0026,2.4231,3.0026,4.5564
	  c0,0.5532-0.1317,0.8691-0.1842,1.4487c-0.3955-0.0527-0.6584-0.1843-1.054-0.1843c-1.3169,0-1.6853,1.2905-2.818,1.949
	  c2.3705,3.0026,6.7688,0.5269,9.1659,3.5293c-0.7903,0.9219-1.5804,1.5803-2.8184,1.5803c-0.5266,0-0.8958-0.3688-1.4224-0.3688
	  c-1.5015,0-1.9226,1.2905-3.1604,2.1334c-1.5806,1.0536-3.7139,1.5012-3.7139,3.424c0,2.2125,0.8955,3.345,0.8955,5.5573
	  c0,2.6077-1.6067,3.8718-1.6067,6.4794v1.4486c4.1877-1.2642,5.1626-5.1096,9.5344-5.8208
	  c0.1318,0.5005,0.3425,0.8955,0.3425,1.4224c0,3.0026-3.819,2.8181-6.3477,4.3984c-2.8969,1.8438-2.8969,5.0306-4.9249,7.7698
	  c-0.4742,5.8472-1.5015,8.9287-2.476,14.8021l-0.3424,0.7112l4.5302-3.8455c-3.6609,5.5837-4.2141,9.3765-7.3486,15.2762
	  c-2.4229,4.583-4.7142,6.7163-6.6897,11.4573c0-0.2635-0.1841-0.3953-0.1841-0.6584c0-5.5313,1.9226-8.6392,4.3982-13.6169
	  c0.7112-1.4487,2.1072-1.9229,2.1072-3.5557v-3.6084c0-1.7122,0.7639-2.5547,0.8955-4.2932
	  c-0.448,0.4478-0.6321,1.0801-1.2383,1.0801c-1.7644,0-2.7389-0.5269-4.3982-1.0801l-0.7112,0.1844
	  c0.0791,1.5541,0.8694,2.2914,0.8694,3.8453v1.4487c-1.1855-1.0537-1.5278-2.8184-3.1609-2.8184
	  c-4.1349,0-6.4266,1.396-10.5876,1.396c-3.8721,0-5.1362-3.2133-8.6128-4.9253c-1.2905,1.8174-3.2395,1.7648-5.4785,1.7648
	  c-0.869,0-1.0532-1.238-1.9226-1.238c-1.3433,0-1.3433,1.712-2.4756,2.2914c-1.8964,0.922-3.5824-0.2632-5.4786,0.7112
	  c-3.0814,1.6331-3.5555,4.188-6.3473,6.3475c-3.5032,2.713-4.4514,5.3732-7.7437,8.2703
	  c-2.4232,2.1334-6.1631,2.3969-6.1631,5.6364c0,2.95,2.186,4.188,3.345,6.8743c1.1061,2.5286,0.5793,6.3477,3.3451,6.3477
	  c2.9232,0,4.1085-2.4495,5.8207-4.741c-2.7393-2.7391-3.3186-5.1096-4.2407-8.8232c4.9783-2.4758,8.1123-2.6338,11.984-6.5319
	  c-0.1318,0.6848-0.3424,1.0797-0.3424,1.7645c0,5.4785,4.9253,9.3501,10.4038,9.3501c5.557,0,8.3755-2.8181,13.9067-2.8181
	  c1.2905,0,1.0269,1.8173,1.422,3.0026c0.527,1.5013,0.869,2.423,1.422,3.8718c0.5271,1.5011,1.7388,1.949,2.8185,3.1605
	  c1.6593,1.9491,2.3705,3.5029,4.5829,4.7671v1.238h-1.4224l-2.8181-0.7112c-1.7649,0-2.7654,0.0527-4.5302,0.0527
	  c-0.9218,0-1.2382,0.9218-1.6329,1.7119v1.4224c3.0286,0,4.4773,1.6066,7.2167,2.9762c-2.239,1.2906-3.9244,1.2379-6.3477,2.1334
	  c-2.0541,0.7373-2.0541,2.8446-3.1605,4.7408c-1.3169,2.3441-2.6865,3.4503-4.0562,5.8208
	  c2.1069,0.7111,4.2141,1.0271,4.7671,3.1869c0.3428,1.4486,0.2637,2.5548,1.396,3.5031c2.6865,2.265,5.0308,2.3441,8.4546,3.187
	  c-2.2385,1.6593-3.9508,2.1597-6.6898,2.8181c2.7654,1.6331,4.662,1.8436,7.7437,2.8181
	  c2.2911,0.7112,3.3973,2.2915,5.8207,2.2915c3.8452,0,3.8979-4.6619,5.2939-8.2966l0.7112-0.3423
	  c-0.2372,1.5012-0.8956,2.2124-0.8956,3.7136c0,3.6874,7.9279,1.5803,7.9279,5.2676c0,1.5541-1.0532,2.3442-1.0532,3.8982
	  c0,0.9031,0.5703,1.4844,1.3586,1.8383l0.0923,3.3782c-2.8149-0.2748-3.1434-3.9358-6.0339-4.8739l-0.5269,0.7109
	  c1.1063,1.1063,0.8954,2.3179,0.8954,3.8718c0,0.7109,0.5267,0.5269,1.2379,0.7109c0.4214,2.7657,2.0281,3.8718,3.5032,6.1633
	  c0.3633,0.5452,0.6919,1.1449,1.1465,1.5375l0.0459,1.6827c-0.1006-0.017-0.1858-0.0596-0.297-0.0596
	  c-1.1854,0-1.8175,0.316-3.0026,0.0527c-0.5793-5.1096-6.2947-5.5049-11.2729-6.7428c-3.345-0.8427-4.6882-3.3448-8.1121-3.3448
	  c-2.2124,0-3.4238,0.7109-5.6365,0.7109c-2.5283,0-2.6074-3.8716-5.1094-3.8716c-2.397,0-3.4769,1.5803-5.6365,2.4495
	  c0.553,0.7637,0.869,1.4221,0.869,2.3969c0,1.2643-0.2106,2.028-0.5267,3.2396c2.1073,0.5267,3.4506,1.5538,4.3984,3.5292
	  c-1.1324,0.7639-2.6339,0.922-2.6339,2.2916c0,2.6864,0.7375,4.2405,1.7648,6.6899c2.95-1.1853,3.8193-3.6875,7.0588-4.2144
	  c0,4.583,3.1604,6.4265,5.4519,10.4037c-3.582,1.1853-7.5854,2.2389-7.5854,5.9789c0,1.8174,0.7112,2.7917,0.7112,4.5828
	  c0,1.4486-1.4224,1.7646-2.4756,2.8184v3.9243c0,1.9753-0.3955,3.0815-0.5271,5.0833c-0.4214-3.3712-1.1853-5.136-1.3956-8.4808
	  c-0.1844-2.4231,1.1852-4.0824,0-6.1632c-1.0538-1.791-2.8184-2.0543-3.8983-3.8717c-1.1327-1.8964-0.3424-3.8718-1.9226-5.4784
	  c-1.1064,1.6857-2.3706,2.5286-4.3987,2.8445c0-1.949-0.2633-3.7136-1.949-4.5828c-1.5803,1.7383-4.7671,1.475-4.7671,3.8716
	  c0,4.0035,1.1851,6.2422,3.0027,9.877c-2.4761,0.158-4.3987,2.1071-4.3987,4.5564c0,4.4512,3.0027,6.453,4.0559,10.7725
	  c-0.9215-0.3687-1.4749-0.8955-2.4757-0.8955c-2.2386,0-3.1605,2.1333-4.2404,4.0562c-0.6584,1.2905-1.9226,1.7119-1.9226,3.1869
	  c0,1.7911,1.501,2.4496,1.9226,4.2142c-1.9753,0.1316-2.8972,1.3169-4.7407,1.949c-1.0276,0.316-1.7649-0.316-2.8184,0
	  c-2.2124,0.6057-2.8184,3.0291-2.8184,5.373c0,4.4512,5.2676,5.6364,5.2676,10.0875v2.3441c-0.8687-0.1055-1.3694,0-2.2383,0
	  c-0.8694,0-1.2906-0.7112-2.1599-0.7112c-1.7122,0-2.5021,1.238-4.2405,1.396c0.1315,2.0808,1.0272,3.1079,1.949,4.9517
	  c-0.6584,0.4741-1.0536,1.0535-1.0536,1.8962v2.3179l0.7112,0.5532l5.9789-5.8209l0.7112,0.1581
	  c0,2.0281,0.1842,3.187,0.7112,5.1096c0.342,1.2378,0.4211,3.0026,1.7644,3.0026c3.1078,0,4.7937-1.5804,7.9279-1.5804v-7.875
	  c0-2.6603,2.239-3.6611,2.8185-6.2158l0.4475,0.6848v8.876c0,0.8691,0.7903,1.2642,0.7903,2.1597
	  c0,2.3179-1.0537,3.5029-1.0537,5.8472c0,0.5795,0.1316,0.8955,0.158,1.4485c3.3977,0,3.3186,5.6365,6.6899,5.6365
	  c2.2126,0,2.9763-1.8438,4.4248-3.5031c2.1072-2.4231,3.0293-4.5038,3.0293-7.7172c0-4.2404,0.5266-6.5581,0-10.7986
	  c0.5793,0.1843,0.9214,0.5269,1.5537,0.5269c3.0027,0,3.0027-3.6875,5.8208-5.1096c0,0.3159,0.1577,0.4476,0.1577,0.7373
	  c0,1.8174-1.9226,2.3969-1.9226,4.1879c0,0.7112,0.3428,1.0797,0.3428,1.7645c0,0.9746-0.2109,1.5542-0.527,2.4758
	  c0.7112-0.5267,1.2906-0.9216,2.1068-1.2378l0.1846,0.7111c-1.6328,1.6329-3.5292,2.6075-3.5292,4.9252
	  c0,0.5269,0.7635,0.5005,1.0536,0.8956c0.8954,1.0536,0.1316,2.5022,1.0532,3.5293c1.949,2.0544,5.0835,1.396,6.1898,4.0298
	  c-3.3451-0.5267-5.1097-1.396-8.4808-1.396c-0.4219,0-0.6584,0.3424-1.054,0.5267c0.8958,3.9772,2.6602,5.8209,4.7673,9.3501
	  c-3.345-1.343-3.345-5.8206-6.8743-5.8206c-1.238,0-1.3696,1.5012-2.2913,2.2914c-2.6339,2.2914-3.8718,4.1351-6.6902,6.1631
	  c6.0844,6.6901,14.8025,8.7706,14.8025,17.8047c0,2.9498,1.2642,4.4512,2.2911,7.2167c1.2642,3.4504,2.6865,6.8745,6.3475,6.8745
	  c1.1064,0,1.7649-0.2635,2.8181-0.0264c0.1846,0.3949,0.3428,0.6057,0.3428,1.0533c0,0.7903-0.0791,1.1852-0.1582,1.9755
	  c-0.6848,0.0527-1.08,0.1843-1.7385,0.1843c-2.1594,0-3.3446-0.8955-5.5045-0.8955c-1.2379,0-1.712,0.9219-2.8185,1.4224
	  c-1.3696,0.6057-3.0022,0.9744-3.0022,2.4495c0,1.0798,0.8428,1.5012,1.2378,2.4757c0.3162,0.7639,0.0527,1.9491,0.8955,1.9491
	  c0.8689,0,1.3169-0.5795,2.1068-0.8955c0.2635,1.3696,0,2.1334,0,3.4767c0,3.3187-0.3158,7.9803,3.0029,7.9803
	  c1.7645,0,1.5011-2.423,2.1068-4.0559c0.2634,1.7646,0.8691,3.7136,2.6339,3.7136c1.2118,0,1.6329-1.2378,2.818-1.2378
	  c1.8704,0,1.2905,2.5547,2.1335,4.2404c-1.0532-0.5267-1.6853-0.8954-2.8184-0.8954c-0.7899,0-1.1587,0.6321-1.6062,1.2378
	  c0.5002,0.7637,1.0269,1.4222,1.949,1.4222c0.4475,0,0.6057-0.3687,1.0532-0.3687c1.844,0,1.844,2.4231,2.1072,4.2405
	  c0.3689,2.3441,1.6067,3.4767,2.4757,5.6364c-3.0287-1.5012-3.7926-3.4502-6.3473-5.4519h-1.396v1.9753
	  c0,4.2667,4.5828,5.689,4.5828,9.9558v3.6083c0,0.7112,0.5266,1.3696,1.2378,1.3696c1.9227,0,2.713-1.6329,3.8718-3.187
	  c0.8693,0.7639,1.1066,1.475,1.9229,2.2914c0.7109-0.6846,1.2114-1.0797,2.1333-1.3958l0.1582,0.7112
	  c-1.2114,0.79-2.2915,1.3694-2.6339,2.8181c2.3439,0.8428,2.16,3.345,3.0023,5.6364c1.2382,3.3978,3.082,5.057,3.082,8.6654
	  v2.2651c-0.3164,0-0.5006,0.3423-0.7903,0.3423c-1.8962,0-1.6858-2.4495-2.2917-4.2141
	  c-0.5793-1.7383-2.0806-2.1335-3.5289-3.1869c-0.0791,0.316-0.527,0.3685-0.527,0.7111c0,2.4232,2.2124,3.1606,3.345,5.2939
	  c1.5803,2.95,2.5024,5.3994,5.6365,6.6901c0.4752-0.817,0.9568-1.468,1.3027-2.1787l0.0258,0.9403l-1.1498,3.9951
	  c0.5051-0.0664,0.9263-0.2295,1.245-0.5187l0.3826,13.9852c-0.236-0.1123-0.481-0.2352-0.7531-0.3677v1.3696
	  c0,0.9861,0.5396,1.6079,0.8457,2.3875l0.0425,1.55c-0.4946,0.7399-2.0902,0.5137-3.2583,0.5137
	  c-1.4966,0-2.6519-0.4731-3.4421-1.7283l3.1078,13.6145c-1.0057,0.1581-2.0438,0.3269-3.2743,0.6245
	  c1.4019,0.355,2.522,0.3833,3.6023,0.811l1.4708,6.4441c-0.2626-0.105-0.5167-0.1965-0.8588-0.1965
	  c-1.5806,0-2.1599,1.7646-2.2914,3.345c2.1368,0.3562,2.9872,2.3571,4.5924,3.1699l1.2253,5.3677l0.0029,0.1013
	  c0,0,0.0264,0,0.0264,0.0264c2.8707,5.6892,6.9534,6.611,11.7998,10.3773c4.7931,3.6874,7.1376,8.2703,13.1952,8.2703
	  c0.8427,0,1.3433-0.3951,1.9493-0.8693c-1.1067-2.2123-3.0029-3.187-2.8184-5.6364c-2.6074-0.1844-3.9243-1.8174-5.4521-3.8981
	  c0.5269,0.0527,0.7903,0.1843,1.3169,0.1843c1.0011,0,1.8438-0.7375,1.8438-1.7645c0-1.0009-0.5796-1.4487-0.7112-2.4758
	  c0.8164,0.316,1.5803,0.6058,2.1333,1.0798c3.7666-1.2379,6.4531-2.3967,8.4548-5.8209
	  c-2.5288-0.8425-3.1873-2.6863-5.2941-4.2404c-1.3169-0.9745-2.7653-0.8429-3.7137-2.1071l0.1846-1.2378h1.5538
	  c4.4513,0,6.1631,4.2405,10.6141,4.2405c3.1344,0,3.5295-3.4504,5.9788-5.2941c2.8184-2.1071,5.0308-2.4758,7.9543-4.3984
	  c4.9779-3.3187,7.4275-7.243,13.38-7.243c2.3702,0,4.3983,1.8435,4.3983,4.2405c0,2.4231-2.2911,3.0815-3.5029,5.1096
	  c-2.2124,3.5292-2.476,6.1631-5.2939,9.1656c-1.8964,2.0281-4.5042,1.1324-6.6898,2.8182
	  c-2.9766,2.2386-3.7928,4.8989-4.2407,8.6389l0.7112,4.2141c-1.4224,4.2405-4.2931,5.689-8.4808,7.7699
	  c-0.4215-0.7902-1.2114-1.1853-1.2114-2.1071c0-1.9492,2.4229-2.0017,4.2136-2.6602c1.7651-0.6584,2.4761-2.3179,2.4761-4.2142
	  c0-1.7383-0.8955-2.6075-0.8955-4.3195c0-0.5267,0.2634-0.8428,0.3689-1.3433v-1.9227h-1.3696
	  c-1.9491,0-1.7649,2.5548-2.3442,4.3986c-0.3948,1.3169-1.7644,1.3695-2.8184,2.2915c-2.0278,1.7646-3.2922,3.5292-5.9785,3.5292
	  c-0.4479,0-0.6584-0.2106-1.0537-0.3424l-0.1844-0.7109c3.7928-1.8965,4.8992-4.3987,7.4012-7.7699l-0.1846-0.6848
	  c-1.7908-0.2633-2.7654-1.0798-4.5828-1.0798c-3.0815,0-5.4783,1.0535-7.5588,3.3448c0.3157,0.2107,0.6584,0.3951,1.0532,0.5532
	  c-0.5002,1.2378-2.1332,1.4485-2.1332,2.8181c0,2.8708,2.6598,3.6873,4.0558,6.1631c2.1599,3.7139,3.9244,5.8472,7.5858,8.1123
	  c2.1068,1.3169,3.2924,2.8182,5.8207,2.8182c0.7112,0,1.0532-0.3688,1.7644-0.3688c2.5812,0,2.7657,3.0026,4.9257,4.4248
	  c2.212,1.4487,3.9244,1.5276,6.5319,2.2914c2.9758,0.8693,4.6091,2.2916,7.7433,2.2916c5.4786,0,7.7697-5.4785,8.8236-10.9304
	  l-0.527-15.329l1.9227-5.8208v-7.006c0-4.1088,2.6602-6.0841,2.6602-10.1929c0-1.0536-0.8955-1.475-0.8955-2.5549
	  c0-0.9481,1.2378-1.0535,1.5803-1.9226c2.1332-5.1624,4.1877-8.8232,9.3499-10.9304c-0.1315,0.4741-0.2629,0.8691-0.342,1.396
	  c2.1069-0.3953,2.9495-1.6067,4.9249-2.2915c7.9806-2.7654,11.7994-6.2949,19.9119-8.6127
	  c1.5278-0.4213,2.9235-0.2897,4.2145-0.4213c1.0005-0.1055,1.949-0.3689,2.844-1.1853c1.2645-1.1326,0.5797-2.7655,1.396-4.2141
	  c2.5812-4.3722,4.8202-8.481,9.877-8.481c4.3198,0,6.0315,3.2659,10.2195,4.4248c5.5571,1.5276,8.9021,2.2651,14.2489,2.7129
	  c-2.2914-1.1326-4.0563-1.712-5.847-2.2124c-1.7908-0.5269-3.6084-0.9746-5.9261-1.9227
	  c-3.0817-1.2379-4.1089-3.424-7.2167-4.3984c-5.6365-1.7648-9.2711-0.5267-14.9863-2.1072
	  c-6.4006-1.7646-9.4293-4.2404-14.9866-7.9277l-58.8662-1.08l-1.7646,0.5269c-1.5012-0.2898-3.0027-1.1326-3.0027-2.6865v-3.4241
	  c0-1.7119-1.0532-2.5022-2.2915-3.74c-1.6592-1.6857-2.4495-3.345-4.7406-3.7137c-2.1335-0.2897-2.2654-2.6864-3.1871-4.5829
	  c-0.9219-1.8438-2.5024-2.5022-4.5829-2.6338c1.2906-2.6074,3.7137-3.582,3.7137-6.4791v-8.6918
	  c0.1582-1.0535,0.7112-1.5802,0.7112-2.6338c0-1.0271-1.2378-1.0535-1.949-1.7646c-1.1063-1.1062-1.4224-2.2915-1.4224-3.8716
	  c0-4.6357,4.7673-6.2949,4.7673-10.9305c0-2.5549-3.5295-3.0026-3.5295-5.5574c0-2.9498,1.949-4.4512,1.949-7.401
	  c0-1.238-1.5801-1.3169-2.8184-1.5013c-1.422-0.2108-1.949-1.396-3.3446-1.396c-2.4232,0-2.5287,3.6874-4.9517,3.6874
	  c-2.1072,0-2.4493-2.8181-4.5829-2.8181c-1.396,0-1.6592,1.554-2.4492,2.6338c-2.1335,2.8708-3.635,5.8208-7.243,5.8208
	  c-3.3451,0-3.1608-4.3987-4.2144-7.5591c-0.4811-1.4768-1.1842-2.5938-1.8687-3.6807l-0.7775-63.0305
	  c0.0566-0.041,0.1138-0.0657,0.1704-0.1093c3.2922-2.5548,4.2401-5.057,5.9789-8.797c1.87-4.0034,4.2928-6.084,8.2963-7.9277
	  c3.8717-1.8174,7.5854-3.7927,7.5854-8.1123c2.1597-2.1597,1.5803-4.6354,1.5803-7.6643c0-1.5803-0.8955-2.397-0.8955-3.9772
	  c0-1.3696,1.3433-1.7646,2.1333-2.8182c2.6338-3.5293,6.2424-5.0569,6.2424-9.4817v-6.2422c0-3.8455-1.6333-6.0315-4.1353-8.9551
	  c-1.2642-1.5013-2.8181-2.2388-2.8181-4.2141c0-4.8989,3.8717-6.7162,5.4519-11.2992c1.5542-4.4512,2.6865-7.006,4.9517-11.0883
	  c1.396-2.5551,4.8462-1.4487,6.6901-3.7139c0.9218-1.1061,0.2633-2.3177,0.7108-3.6873c0.8694,0.1317,1.2645,0.7111,2.1599,0.7111
	  h1.4487v-6.8743l-1.8435-13.5906c3.2922-3.661,8.7966-4.1877,8.7966-9.113v-4.662c0-2.6075-1.7645-3.8453-1.7645-6.4528v-3.9507
	  c0-2.6603-0.5266-4.3723-2.1072-6.4792c-0.5267-0.7639-1.5802-0.9746-1.5802-1.9491c0-1.4486,1.9753-1.1324,3.345-1.5804
	  c1.2905-2.6074,3.7139-3.6083,3.7139-6.5317c0-2.2388-2.9502-2.0018-4.425-3.6875c-2.6338-3.0288-1.2378-6.3474-1.2378-10.4036
	  c0-2.2124,1.0272-3.8191,3.0026-4.7671c1.317-0.606,2.6603,0,3.7135-1.0537c1.8439-1.8438,0.2637-4.4775,1.9226-6.5054
	  c1.4751-1.7649,4.5833-1.5541,4.5833-3.8982c0-3.2396-2.8972-4.2668-4.2141-7.2168c-2.1335-4.6619-2.792-10.5616-7.9279-10.5616
	  c-1.3698,0-2.16,0.3424-3.5297,0.3424c-3.0549,0-6.5317-1.3696-6.5317-4.3984c0-1.8701,2.3969-1.949,4.2407-2.1333
	  c2.1855-0.2108,3.4766-0.6849,5.6888-0.6849h3.4241c4.3719,0,7.0585,0.5267,10.9829,2.4495
	  c1.9753-2.6865,1.3433-5.1886,2.8184-8.2703c1.0533-2.265,3.6871-2.6603,3.6871-5.1096c0-2.1334-2.186-2.5548-3.6871-4.056
	  c-1.6333-1.6331-3.3187-2.1071-5.6364-2.1071c-4.2932,0-6.6638,0.6848-10.9305,0.6848c-1.87,0-2.3966-2.2389-2.3966-4.0826
	  v-6.0051c0-4.3984,3.6345-6.2949,3.6345-10.6933c0-2.2651-2.6603-2.871-2.6603-5.1097c0-3.4503,4.9519-3.9771,4.9519-7.4011
	  c0-1.949-2.8711-1.238-4.7673-1.6066c-1.7648-0.3424-2.1073-1.9228-3.1869-3.345c-0.5532-0.7901-1.9226-0.7375-1.9226-1.7646
	  c0-1.396,0.7109-2.1072,0.7109-3.5294c0-1.475,0-2.8446,1.2117-3.6873c1.738-1.1589,4.5829-0.5795,4.5829-2.6602
	  c0-2.0018-0.3951-3.0817-0.6848-5.1096c-3.6351-0.2635-5.4786-2.4233-7.5858-5.2677c-0.7635-1.554-1.8435-1.4749-2.8176-2.8182
	  c-2.4761-3.3977-2.8185-6.2158-2.8185-10.4036c0-4.978,3.5292-7.3747,3.5292-12.3527c0-4.8462-4.5828-6.769-4.5828-11.6152
	  c0-1.7384,2.3179-1.9492,4.0559-1.9492c2.1863,0,3.4241,0.5268,5.6367,0.5268c2.0544,0,2.976-2.2914,2.976-4.3457v-5.0307
	  c0-5.8998-2.1068-9.0868-2.1068-14.9865v-3.5292c0-4.2142-1.396-6.4793-1.396-10.6934c0-3.5294,1.396-5.4785,1.396-9.0078
	  c0-3.424-0.4744-5.4519-1.7649-8.6125c-0.6057-1.5013-1.9226-2.0808-1.9226-3.7138c0-2.0279,3.1604-1.8962,3.5032-3.8716
	  c0.2371-1.3169,0-2.1334,0-3.4767v-3.6347c0-2.8182,3.3975-2.9498,6.0052-4.0035c-0.3954-2.6074-2.8184-3.0288-4.0563-5.294
	  c-1.2905-2.2914-1.2378-4.0033-1.2378-6.6371v-1.8964c1.7118,0.0791,2.6863,0.0527,4.3983-0.0789
	  c1.6066-2.1598,2.4757-4.3195,2.4757-7.0587c0-4.3195-2.8181-6.4266-2.8181-10.7461c0-3.5294,7.0588-1.3433,7.77-4.7672
	  c0.869-4.1088,2.6338-6.2949,2.6338-10.5353v-4.1351c0-0.3962,0.0254-0.7519,0.0601-1.0923H86.8989L88.6416,806.9395z
	   M86.2419,1387.2369l0.1685,6.1603c-1.1018-4.3577-3.2209-7.7672-3.2209-13.1517c0-1.0007,0.0264-1.5803,0-2.6074l0.8694-0.158
	  C85.2927,1381.1947,85.8462,1384.2081,86.2419,1387.2369z"/>
	<path d="M279.1735,1549.5c-0.7101-0.1899-1.0499-0.53-1.77-0.53c-3.42,0-5.37,0.87-8.7899,0.87
	  c-4.4501,0-6.6702-2.8199-11.1201-2.8199c-6.03,0-9.4299,0.5-15.33,1.95c-2.5,0.6-3.74,1.95-6.34,2.11l0.5-120.4
	  c-1.9301-2.5-3.51-4.53-4.3801-8.08c-1.8699,2.5-3.9199,3.03-6.71,4.58c-2.3699,1.3201-3.77,2.6301-6.51,2.6301
	  c-1.76,0-1.95-2.1001-2.6599-3.6801c-1.0801-2.5601-2.29-3.8-4.4-5.64c-1-0.89-1.26-2.29-2.63-2.29c-2.03,0-3.6599-0.11-5.11,1.21
	  c-0.4501,0.4001-0.7101,0.8401-0.89,1.3201c-0.48,1.34,0,2.95,0,4.74v3.76c0,3.0601-2.77,3.9299-4.75,6.22
	  c-1.1,1.29-0.76,3.71-2.47,3.71c-3.66,0-5.3501-2.5-7.9301-5.1099c-1.16-1.1501-1.37-3-3-3c-0.74,0-1,0.71-1.7699,0.71
	  c-0.7301,0-1.1801-0.3701-1.9501-0.3701c-0.39,0-0.86,0.1401-0.86,0.5601c0,2.3201,3.34,2.5801,3.34,4.92
	  c0,0.61-0.71,0.7899-0.71,1.4c0,1.95,2.8199,1.29,4.7699,1.61c0,2.0499,0.52,3.21,0.52,5.2599
	  c0,2.1401-2.2899,3.1901-4.3999,3.1901c-2.29,0-2.9401-2.2899-5.1001-3l-1.2999,7.5c1.64,4.2201,0,7.04,0,11.54
	  c0,1.7899,2.22,1.7899,3.74,2.63c1.24,0.6599,1.74,1.95,3.1901,1.95c4.27,0,6.0299-2.9199,10.0399-4.4199
	  c5.37-1.98,8.9-1.74,14.64-1.74c3.27,0,5.64,2.98,5.64,6.24c0,3.53-3.61,4.45-6.6901,6.09c-2.6099,1.37-3.7999,2.6801-6.53,3.87
	  c-5.51,2.39-8.1399,5.11-14.0999,5.8201c-0.1801,1.5-0.1801,2.3398-0.1801,3.8398c0,4.8,2.8199,7.2201,2.8199,12.01
	  c0,4.51,4.9,5.25,8.8201,7.41c7.1399,3.9701,11.8,5.16,18.33,10.0601c3.16,2.37,7.04,3.42,7.04,7.4
	  c0,1.3099-1.66,1.76-2.9801,1.76c-0.6299,0-1.0299-0.23-1.6099-0.3701c-0.55,1.22-1.05,1.9-1.05,3.1901
	  c0,0.87,0.45,1.26,0.71,2.11c-1.6899-0.85-2.61-1.71-3.53-3.35c-0.6599,1.16-0.8699,2.0299-1.95,2.8199l-0.87-3.87
	  c0.4501-1.2899,1.4501-1.58,2.2899-2.66c-1.5798-1.58-2.47-2.3699-4.24-3.6899c-1.5199-3.13-4.74-2.24-8.0798-2.63
	  c-2.79-0.3199-3.77-2.8199-6.53-2.8199c-1.8501,0-1.3201,3.5-3.17,3.5c-2.84,0-1.76-5.6301-4.58-5.6301
	  c-1.74,0-3.1801,0.3101-4.05,1.76c-0.66,1.1101-0.64,2.8201-1.95,2.8201c-1.8501,0-2.29-1.79-3.72-3
	  c-2.8401-2.4299-4.7401-3.37-8.0801-4.9299l0.52-0.7101c1.1899,0.11,1.6399,1.05,2.8199,1.05c0.34,0,0.4-0.42,0.7101-0.52
	  c-0.26-1.0599,0.08-1.9301-0.55-2.8199c-0.66-0.9501-2.11-1.1101-2.11-2.29c0-2.03,1.98-2.72,2.2899-4.74
	  c1.4301,1.21,2.48,1.76,3.8801,2.97c-0.53,0.27-1.4001,0.27-1.4001,0.9c0,1.1,0.4701,2.2899,1.5801,2.2899
	  c1.8201,0,3.87-0.84,3.87-2.6599c0-2.29-1.7101-3.21-2.63-5.27c-2.11-4.6899-4.5801-7.27-4.5801-12.4299
	  c0-1.7101,2.1001-10.0901,1.4202-8.7201c-1.24,1.85-1.6301,3.4-3.53,4.4c-1.6901,0.9199-4.4301,0.34-4.4301,2.29
	  c0,1.6299,1.2899,2.5599,2.8199,3.1599c-0.5499,2.3501-1.26,4.95-3.6899,4.95c-1.1,0-1.6799-0.3599-2.73-0.71
	  c-0.14,1.1101,0.1,1.71,0.1,2.8201c0,1.84-2.08,2.6399-3.92,2.6399h-3.6399c-2.05,0-2.9001,1.9401-4.98,1.9401
	  c-2.1801,0-3.1602-1.58-5.3701-1.58c-1.6599,0-2.45,1.0601-4.1299,1.0601c-1.9501,0-1.9501-3.1602-3.8801-3.1602
	  c-0.97,0-1.5,0.52-2.47,0.52c-2.8999,0-3.79-3.1799-6.6899-3.1799c-3.0601,0-2.6101,5.47-5.64,5.47
	  c-2.26,0-3.26-1.9399-5.5-1.9399c-0.9,0-1.37,0.0699-2.27,0.0699c-1.1801,0-1.84-0.86-2.4501-1.84
	  c0.6602-0.53,1.0801-0.79,1.9301-1.05c-0.4501-0.45-0.87-0.77-0.87-1.37c0-0.58,0.13-0.87,0.15-1.45c0.4-0.13,0.64-0.34,1.08-0.34
	  c1.1899,0,1.6101,1.0499,2.8201,1.0499c1.1899,0,2.8199,0.13,2.8199-1.0499c0-2.98-3.13-3.7201-5.8199-4.9501
	  c-0.6301-0.27-0.3401-1.4-1.05-1.4c-1.3201,0-1.29,1.66-1.95,2.8201c-0.8701-1.1101-1.4-1.95-1.4-3.3501
	  c0-1.6299,1.37-2.1599,2.2699-3.5c0.02,0,0.02-0.0299,0.02-0.0299l-1.6699,0.4301c-2.05-0.4701-2.71-3.2401-5.04-3.2401
	  c-2.1599,0-1.37,2.75-1.76,4.9901l-1.1599,0.2899c-2.8101-3.5399-1-8.35-4.6401-11.63c0.1301,1.05,0.4202,1.63,0.4202,2.6799
	  v9.4601l-0.4202,0.6801c-3.0099-5.16-2.6599-8.9501-3.8999-14.77c-0.4199,1.8199-0.4,2.8699-1.05,4.58
	  c-0.3999-2.5-1.72-3.8199-1.3999-6.35c-0.3201-0.0801-0.53-0.3401-0.9001-0.3401c-1.5199,0-1.9199,1.98-1.9199,3.53
	  c0,1.3201,0.29,2.03,0.0801,3.3501c-0.6602-0.4501-1.05-0.9001-1.8401-0.9001c-0.77,0-0.8999,0.9001-1.0601,1.6101l-0.71,0.1599
	  c-1.3699-1.72-2.21-3.22-4.4199-3.5299l-0.16,0.71c2.8199,2.8199,4.2101,5.11,4.2101,8.98c0,0.4501-0.3401,0.6801-0.52,1.08
	  c-2.03-1.48-1.77-3.72-3.53-5.48c-1.9301,1.29-3.8201,0.24-5.8,1.42c-1.24,0.74-0.79,2.11-1.24,3.53c0.27,0,0.4,0.16,0.6599,0.16
	  c0.6602,0,1-0.53,1.6602-0.53h1.48v4.0601c1.3699-0.3201,2.0499-1.2401,3.47-1.2401c1.1899,0,1.85,0.1901,3.03,0.05v4.14
	  c0,1.5-0.97,2.24-0.97,3.74c0,1.34,2.1299,1.34,2.1299,2.6599c0,1.1801-1.24,1.5-1.58,2.6301c2.9,1.45,3.8199,3.98,7.0299,4.24
	  c0-0.26,0.1901-0.3901,0.1901-0.66c0-1.6801-0.5299-2.6-0.5299-4.29c0-2.63,0.9199-4.2699,2.8199-6.16
	  c0.5299,0.79,0.61,1.9501,1.58,1.9501c2.21,0,2.74-2.8199,4.9301-2.8199c1.5499,0,1.63,2.45,3.1801,2.45
	  c-0.76,2.29-2.6301,3.1899-2.6301,5.61v4.48c0,1.34-1.3699,1.6-1.95,2.79l0.1799,1.0499h1.3701c2.5599,0,2.95-3.53,5.51-3.53
	  c4.1899,0,6.6899,0.4001,10.5599,1.9501l1.24-2.13c1.1801,1.0801,1.9501,2.13,3.53,2.13c1.23,0,1.92-0.39,3.16-0.7101
	  c0.45,2.77,2.3899,3.7401,3.34,6.3501c0.66,1.76,0.24,4.3999,2.14,4.3999c1.4399,0,2.23-0.5299,3.6799-0.5299
	  c-1.6599-4.08-4.3999-5.77-5.11-10.2201c0.3199,0,0.4-0.3398,0.7101-0.3398c1.72,0,2.24,1.71,3.1699,3.1599
	  c1.3401,2.0801,3.13,2.5,4.42,4.5801c1.2599,2.08,1.7699,4.77,4.21,4.77c1.3199,0,1.3199-1.8701,1.4301-3.1901l0.71-0.34
	  c1.53,3.08,5.63,3.03,5.63,6.35c0,1.71-2.08,2.0499-3.7101,2.45c-1.8398,0.5-2.1599,2.7101-4.0599,3
	  c-1.3099,0.24-2.42-0.34-3.5199,0.37c-1.53,1-1.0801,3.87-2.9801,3.87c-2.08,0-2-3.5299-4.0599-3.5299
	  c-3.6101,0-4.24,4.6599-4.24,8.2999c0,0.6,0.98,0.34,1.4199,0.6801c1.0601,0.9199,1.64,1.8699,2.98,2.29
	  c1.95,0.6599,2.8701,1.95,4.95,1.95c5.03,0,8.4601-1.97,11.4601-6c1.24,2.1599,1.1801,4.6299,3.53,5.47l7.0299-3.1799
	  c0.1101,0.3099,0.3701,0.5199,0.3701,0.8899c0,2.0601-0.92,3.27-2.1301,4.9301l0.1801,1.0499c2.11,0.1901,3.35,0,5.4801,0
	  c0,1.9501,0.8699,4.0601,2.8199,4.0601c1.5,0,2.37-0.3401,3.87-0.3401c4.3201,0,6.87-0.0798,10.9299,1.3901
	  c1.24,0.45,1.53,1.77,2.8401,1.77h3.45c5.1699,0,8.01-1.77,13.1699-1.77c1.8201,0,2.9302,0.5499,4.6901,0.1099l0.53,0.9701
	  c-4.58,2.2899-7.77,1.92-12.7001,2.98c-2.6599,0.58-6.3398,0.26-6.3398,3c0,3.85,7.9199,1.98,7.9199,5.8199
	  c0,1.6301-1.5801,2.24-1.5801,3.8701c0,0.8999,0.48,1.3199,0.8701,2.1099c0.6399,1.2401,0.27,2.4801,1.58,2.4801
	  c0.58,0,0.9-0.3199,1.4301-0.53c-0.4001,0.84-0.8501,1.29-1.24,2.11v1.23c1.1799,0.1101,1.8398-0.02,3,0.1901
	  c1.8999,0.39,1.1099,3.0299,2.6299,4.24c3.0601,2.3199,6.1901,1.84,8.6401,4.74c1.24,1.4501,1.24,3.87,3.1899,3.87
	  c2.8999,0,4.48-1.21,7.3999-1.21c-3.6099-3.27-4.95-6.6101-4.95-11.46c0-0.8401,0.8401-1.42,1.6799-1.42
	  c1.1401,0,1.4501,1.42,2.6101,1.42h5.59l0.1801,0.5299l-0.6301,2.11v5.16c0,3.48,3.05,6.11,6.53,6.11
	  c3.3501,0,5.6401-2.24,6.6101-5.45c0.6599,1.58,1.27,3.34,3.03,3.34h4.1599c1.21,0,1.45,1.37,1.98,2.48
	  c0.5801,1.1801,1.76,1.66,1.76,2.9701c0,0.5299-0.26,0.8999-0.37,1.4299c0.3199,0.0801,0.37,0.52,0.7101,0.52
	  c0.9299,0,1.3699-0.87,2.2999-0.87c2.8099,0,1.0499,4.46,2.4701,6.88c0.6599-1.1901,1.1299-2.16,1.45-3.1901
	  c0.3199-1,0.47-2.08,0.47-3.42c0-2.7899-3.5-3.51-3.5-6.2699c0-1.13-1.87-1-2.13-2.11c-1.4-5.6301-7.7999-4.6301-13.2201-6.71
	  c1.29-1.27,2.8101-0.53,4.5801-1.0601c2.21-0.66,3.37-1.39,5.48-2.29c-2.6899-3.37-8.6399-2.45-8.6399-6.74
	  c0-0.79,0.1299-1.27,0.1799-2.0601c0.34,0,0.53-0.1799,0.87-0.1799c2.8199,0,3.58,3.34,6.4,3.34h1.53
	  c-0.03-0.65-0.16-1.0499-0.16-1.71c0-7.6901,2.24-0.9701,3.5,1.9c0.5,1.05,0.24,2.6299,1.4301,2.6299
	  c2.8699,0,4.1799-2.0999,7.0599-2.0999c2.63,0,3.34,3.34,5.97,3.34c1.5599,0,1.4301-2.03,2.11-3.34
	  c1.0801-1.98,3.45-0.9001,5.6899-0.9001c0.53,0,0.8401,0.1602,1.3701,0.1801c0,2.35-0.1801,3.67,0,6.01
	  c0.26-0.4,0.3899-0.9,0.8999-0.9c1.0801,0,1.7101,0.72,2.8101,0.72c4.1899,0,6.3201-4.46,6.3201-8.6399
	  c0-1.79-1.6501-2.3-2.4401-3.88C280.0935,1555,279.4335,1552.97,279.1735,1549.5z"/>
	<path d="M83.1895,1377.6381c0.0264,1.0271,0,1.6067,0,2.6074c0,5.3845,2.1191,8.7941,3.2209,13.1517l-0.1685-6.1603
	  c-0.3958-3.0288-0.9492-6.0422-2.1831-9.7568L83.1895,1377.6381z"/>
	<path d="M83.9797,1424.1779c1.1681,0,2.7637,0.2262,3.2583-0.5137l-0.0425-1.55
	  c-0.3062-0.7795-0.8457-1.4014-0.8457-2.3875v-1.3696c0.2721,0.1324,0.5171,0.2554,0.7531,0.3677l-0.3826-13.9852
	  c-0.3187,0.2892-0.7399,0.4523-1.245,0.5187l-4.9429,17.1697l0.0051,0.0217
	  C81.3279,1423.7047,82.4832,1424.1779,83.9797,1424.1779z"/>
	<path d="M160.5715,343.7537c0,1.1588,0.2023,2.1212,0.4626,3.0264v-5.1572
	  C160.7505,342.238,160.5715,342.9251,160.5715,343.7537z"/>
	<path d="M40.8899,1396.5226l0.7112,0.1581c2.4497-1.6329,5.979-1.6329,5.979-4.5829
	  c0-0.5796-0.9742-1.0536-1.396-1.396C43.5238,1392.2295,42.2596,1393.7836,40.8899,1396.5226z"/>
	<path d="M29.2487,1102.0076c0,1.0009,1.1061,1.5803,2.1072,1.5803c1.8173,0,2.0018-2.2915,3.7135-2.8181
	  c3.5823-1.1063,4.2671-4.7146,4.5828-8.481c-1.4484,0.5004-2.1595,1.6064-3.7134,1.6064c-1.0537,0-1.2642-1.1061-2.2917-1.4221
	  l-0.342,0.7112c0.9216,0.5266,1.4224,0.9218,2.291,1.5802l0.3428,0.7112c-1.2114-0.6058-2.1863-0.2635-3.5032-0.7112
	  c-1.1061-0.3424-1.5012-1.5802-2.6866-1.5802h-1.3696c-0.1051,0.316-0.2367,0.5793-0.3685,0.869
	  c2.3967,1.6068,3.9772,2.2125,6.0054,4.2406C31.9879,1099.479,29.2487,1099.6635,29.2487,1102.0076z"/>
	<path d="M53.9276,1185.7108c-1.0009,0-1.5011,0.7109-2.5023,0.7109h-1.3694v-0.5267l-0.7112,0.1844
	  c1.844,2.0544,2.4761,4.9253,5.2941,4.9253c1.5275,0,2.3705-0.8955,3.9244-0.8955h3.4766
	  c1.0535-1.1853,2.0281-1.8438,2.6338-3.345c-1.4485-0.8429-2.6338-0.3425-4.2141-0.8693
	  c-1.7384-0.5793-2.3969-2.1071-4.2405-2.1071c-0.6057,0-0.8694,0.3953-1.4224,0.6848c0.553,0.7112,0.9485,1.2905,1.2378,2.1334
	  l0.1846,0.6849C55.5078,1186.5009,55.0339,1185.7108,53.9276,1185.7108z"/>
	<path d="M39.9949,1201.5663l-0.9485-0.5267v4.4249l-1.5011,2.1072c0.6844,2.1069,1.2378,3.3975,1.2378,5.6364
	  c0.4215,0.079,0.6058,0.3423,1.0536,0.3423c1.5015,0,2.2388-0.9481,3.345-1.9227c-1.9753-1.9753-3.1868-3.6083-3.1868-6.4001
	  C39.9949,1203.8314,40.1001,1202.9888,39.9949,1201.5663z"/>
	<path d="M47.7646,1173.9111c-1.1588,0.3951-0.8958-1.8173-1.2379-3.0026
	  c-1.4487,0.5795-2.239,1.1853-3.3451,2.2915c1.0006,0.6584,1.9755,0.5793,2.8181,1.4222c0.8428,0.8165,0.527,2.6339,1.7649,2.6339
	  c1.9226,0,2.818-2.1072,2.818-4.0562c0-1.1853-1.1063-1.4487-1.9491-2.2915
	  C48.6072,1172.0939,48.8706,1173.5424,47.7646,1173.9111z"/>
	<path d="M85.481,1034.8448c0,0.7113,0.0791,1.0536,0.1841,1.7646l-1.7644-1.4222
	  c-0.5266,0.4478-1.0796,0.9219-1.0796,1.6858c0,0.8689,0.7108,1.3169,0.7108,2.2123c0,0.6848-0.3424,1.0536-0.3424,1.7384
	  c0,0.3687,0.4479,0.4214,0.5266,0.7109c1.1064-0.2104,1.7124-0.0261,2.8184,0c-0.6057,2.5286-5.4521,1.2908-5.4521,3.8718
	  c0,2.0808,2.0017,3.3713,4.0825,3.3713h3.6084c3.2135,0,3.6084-3.6609,6.4004-5.2939c2.1072-1.238,4.3982-2.1072,4.3982-4.583
	  c0-2.2386-4.2141-1.6329-4.2141-3.8716c0-3.2134,0.9482-5.6101,1.2119-8.8232c-0.527-0.3163-0.8694-0.4744-1.396-0.7112
	  l-0.3425,0.7112l0.5266,2.4756v1.396c-0.395,0.0527-0.6843,0.1843-1.0798,0.1843c-1.0796,0-1.0006-1.5803-1.9226-2.1069
	  l-1.4224,0.6848c-1.0533-0.9219-1.2643-1.9753-2.2913-2.9763c-0.2635,0.4214-0.5269,0.6847-0.5269,1.2378
	  c0,2.5022,2.0808,3.4768,3.5293,5.4521c-0.6586,0.3951-1.1324,0.7112-1.9491,0.7112c-0.6848,0-1.0533-0.3688-1.7382-0.3688
	  l-0.1846,0.7112l0.7113,0.5266l-0.1846,0.7112C87.1929,1034.924,86.5872,1034.9766,85.481,1034.8448z"/>
	<path d="M70.4941,1069.9275c0-0.8955,0.7112-1.2379,0.7112-2.1333c0-1.7122-2.4229-2.2915-4.0558-2.8184h-2.0809
	  c-2.1594,0-3.2131-1.396-5.3727-1.396c-0.527,0-0.843,0.1318-1.3698,0.1582l-0.1581,0.7111
	  c2.4232,1.8174,4.0562,3.6083,4.0562,6.6637v3.9243c0.7375,0.0264,1.1852,0.1581,1.9227,0.1581
	  c0.4475,0,0.6321-0.3424,1.0535-0.3424c0.3162,0,0.3953,0.316,0.7109,0.3424c0.0791,1.3433,0.0791,2.2914,0.8958,3.3712
	  c2.0017-1.1062,1.4751-3.4503,3.1604-5.1359c1.0537,2.1334,1.2378,3.6346,1.2378,5.9523c0,1.8174-0.3948,2.8184-0.105,4.6356
	  c0.4478-0.1317,0.6848-0.3424,1.1589-0.3424c1.3694,0,1.3694,1.6594,2.4757,2.4497c0.3948-0.3953,0.869-0.6584,0.869-1.238
	  c0-0.9482-0.5266-1.475-0.5266-2.4495c0-3.4503,1.0536-5.373,1.0536-8.8232
	  C73.4971,1073.4305,70.4941,1072.5613,70.4941,1069.9275z"/>
	<path d="M73.1281,1097.9515c0-1.5541,0.0527-3.3187-1.3956-3.7137c-0.6584-0.1844-0.8955,1.4485-1.4221,1.0535
	  c-1.0012-0.7375-1.2118-2.1069-2.5023-2.1069h-1.5538v8.6389c1.5011,1.6593,2.291,2.8181,4.24,3.8718
	  c0.5798-1.1326,2.2917-1.0537,2.2917-2.2915c0-1.1853-1.2378-1.6331-1.2378-2.8181
	  C71.5481,1099.4001,73.1281,1099.1367,73.1281,1097.9515z"/>
	<path d="M82.6628,926.9894c-1.4487-1.8699-0.8958-3.7136-1.949-5.8207c-1.1328-2.3441-3.5295-3.0553-3.5295-5.6364
	  c0-1.1061-0.158-2.0808-0.158-3.187c-1.5538,0.5004-3.2399-0.1317-4.0562,1.238c-1.0537,1.7119-0.2634,4.7673-2.2915,4.7673
	  c-2.6865,0-3.4768-3.187-6.1631-3.187c-1.2117,0-1.2117,1.4485-1.7646,2.4758c-0.3949,0.7112-1.4224,0.7375-1.4224,1.5802
	  c0,1.7648,1.238,2.6339,1.238,4.3986c0,3.898-4.9253,4.7672-4.9253,8.6389c0,0.7639,0.6848,1.0272,0.6848,1.7648
	  c0,2.0016-1.2378,2.9499-1.2378,4.9514c0,4.9254,1.6063,7.5593,1.6063,12.5107c0,6.0841-1.2905,9.6926-4.2401,14.9865
	  c-1.6333,2.8973-3.8719,4.3459-3.8719,7.6909v1.4486c4.0825,0.5532,5.5836,4.056,9.6926,4.056c0.6057,0,0.7903-0.869,1.396-0.869
	  c2.5284,0,3.3973,2.4756,5.9261,2.4756c1.396,0,2.1859-0.4478,3.6079-0.5267c-0.3157-1.3696-1.3169-1.7648-2.1068-2.8446
	  l0.6848-0.3424l2.1332,1.0536c0.4744-0.3951,0.8694-0.8165,0.8694-1.5013c0-1.3169-0.9747-1.9753-0.9747-3.2923
	  c0-1.6329,0.1053-2.5549,0.1053-4.1879c2.0282-0.2633,3.1609-0.2633,5.1099-0.8692l0.158-0.711
	  c-0.7375-0.5268-1.1852-1.1062-1.5803-1.949c0.4742-0.2635,1.2382-0.316,1.2382-0.8692c0-2.4758-1.9491-3.582-1.9491-6.0578
	  v-2.0544c0.2631,0,0.3949-0.1844,0.6586-0.1844c0.9742,0,1.422,0.8956,2.3966,0.8956h1.3696c0-0.316,0.3423-0.3951,0.3423-0.7112
	  c0-1.3169-1.5011-1.5013-2.1068-2.6602c-1.5542-2.7654-4.1617-2.9498-6.0052-5.452c0.4475-0.4477,1.0533-0.6057,1.0533-1.2378
	  c0-2.0281-1.4489-2.8972-1.5802-4.9253c0.3159-0.0527,0.395-0.3688,0.7112-0.3688c2.6074,0,2.7653,3.0554,4.0559,5.2941
	  c0.079-0.3161,0.3427-0.5269,0.3427-0.8693c0-3.3186-2.8184-4.7145-2.8184-8.0331c0-2.107,1.9753-3.6083,4.1089-3.6083h3.608
	  c2.6865,0,5.8474-1.0009,5.8474-3.6874C86.877,929.1492,84.1116,928.8859,82.6628,926.9894z"/>
	<path d="M100.4675,1035.3717c1.7117,0,3.6871-0.7377,3.6871-2.4758c0-0.9481-1.5011-0.6848-2.1068-1.396
	  c-0.7112-0.8429-0.9746-2.0807-1.2383-3.1869c-0.3948-0.1316-0.6057-0.3423-1.0532-0.3423c-1.2378,0-1.0272,1.7645-1.5806,2.8181
	  c-0.5793,1.0535-1.7644,1.4222-1.7644,2.6338C96.4114,1035.1609,98.7291,1035.3717,100.4675,1035.3717z"/>
	<path d="M41.2327,1179.5476c0.8955-0.1317,1.4224-0.4478,2.1069-0.8956v2.1334
	  c0.4215,0.1318,0.7112,0.3424,1.08,0.5267c0.9218-0.9216,1.6593-1.2905,2.6339-2.1069c-1.5542-1.3696-2.239-2.5811-4.2405-3.5293
	  C41.9438,1177.0454,41.4961,1177.9147,41.2327,1179.5476z"/>
	<path d="M16.4219,1327.6478c0,1.791,1.3169,3.4768,3.1345,3.4768c2.291,0,1.9753-3.0815,3.0022-5.1097
	  c1.7122-3.4767,3.345-5.1096,5.2941-8.4545c-0.9745-0.8428-1.87-1.238-3.1869-1.238c-1.712,0-2.5547,1.1062-4.0562,1.9226
	  c-0.2107-1.3958-1.1323-2.1859-2.4492-2.6338c-0.0527,0.3162-0.3689,0.3951-0.3689,0.7112c0,0.922,0.7109,1.3696,0.7109,2.2915
	  c0,1.4485-2.0806,1.6593-2.0806,3.1343V1327.6478z"/>
	<path d="M84.0588,1503.3245c0.4475,1.396,0.6321,3.1606,2.1333,3.1606c1.396,0,1.0535-2.1071,1.0535-3.5294
	  c0-0.7374-0.5266-1.5803-1.0535-2.1071c-0.6584-0.1317-1.0801-0.3424-1.7649-0.3424c-1.3433,0-2.0808,0.9219-2.6602,2.1071
	  l0.1846,0.7112c0.316,0.0264,0.3948,0.3424,0.7112,0.3424C83.1895,1503.6669,83.5319,1503.4036,84.0588,1503.3245z"/>
	<path d="M16.9225,1308.5526c0.2631,0,0.3949,0.1843,0.6584,0.1843c1.317,0,1.8436-1.1062,3.0287-1.5802
	  c1.5015-0.6321,2.8711-0.7112,3.7139-2.1334v-1.396c-2.397,0-3.4502-1.5538-5.821-1.949
	  C17.5282,1304.2333,17.0803,1305.8398,16.9225,1308.5526z"/>
	<path d="M110.6865,1519.3646c0,0.553,0.29,0.8689,0.5269,1.3958c1.001-0.2897,1.5803-0.7109,2.6339-0.7109
	  c0.4479,0,0.6321,0.3685,1.0536,0.3685c0.3684,0,0.3948-0.4476,0.7112-0.5267c-0.0527-0.8428-0.5793-1.7119-0.8694-2.4757
	  C113.0046,1517.4945,110.6865,1517.6261,110.6865,1519.3646z"/>
	<path d="M33.3049,1328.8331c1.5537,0.6057,1.8962,2.2915,3.5292,2.2915c2.476,0,2.4232-3.8718,2.818-6.3475
	  C37.1501,1326.2257,34.4109,1326.173,33.3049,1328.8331z"/>
	<path d="M85.4753,1405.2582c-0.1248,0.0164-0.2244,0.0613-0.3633,0.0613c-2.4492,0-3.1604-3.0024-5.636-3.0024
	  c-0.6058,0-0.3955,1.1062-0.8694,1.4224c-1.3169,0.9216-3.7136,0.6057-3.7136,2.2913c0,1.4487,1.6064,1.8965,1.6064,3.3451
	  c0,2.1071-1.6064,3.0026-1.9491,5.1096c0.3951,0.1317,0.6057,0.3424,1.0536,0.3424c0.7639,0,1.0272-0.6848,1.7648-0.8691
	  c0,0.3159,0.1846,0.4476,0.1846,0.7375c0,0.8427-0.7112,1.2114-0.7112,2.0278v1.475l0.7112-0.3688
	  c-0.2372,0.6323-0.527,1.0537-0.527,1.7649c0,1.0271,0.3951,1.5012,0.6848,2.4757c-1.1326,0-2.4496,0.4214-2.4496,1.5802
	  c0,0.7112,0.8694,0.8693,0.8694,1.5804c0,2.1071-2.8184,2.6075-2.8184,4.7145v1.4486c0.316,0.1053,0.5266,0.3688,0.8956,0.3688
	  c1.7118,0,1.7118-2.2125,2.9761-3.345c1.0535-0.9219,2.2654-0.8429,3.7137-0.7112c0.079-0.5002,0.3424-0.7638,0.3424-1.2378
	  c0-0.7113-0.7112-0.9219-0.7112-1.6331v-2.3969c0.0026,0.004,0.0057,0.0061,0.0083,0.0101l-0.0051-0.0217L85.4753,1405.2582z"/>
	<path d="M172.1868,1552.8405c-2.6074,0-3.7402-2.1071-6.3477-2.1071c-0.79,0-1.1327,0.6584-1.3958,1.396
	  c-0.843-0.2634-1.238-0.8693-2.1335-0.8693c-1.9753,0-2.2914,2.6075-2.2914,4.583c0,2.423,3.3184,2.0281,5.6628,2.6338
	  c1.4484,0.395,1.6591,2.1333,3.1605,2.1333c1.6328,0,2.2385-1.2115,3.8716-1.6066c0.2637,1.8174,0.843,2.7391,1.4224,4.4249
	  c0.3948,1.0797,0.3948,2.6338,1.5803,2.6338c1.0535,0,1.1062-1.5541,2.1068-1.7646c1.1591-0.2107,1.8175,0.0525,3.0028,0.1843
	  c0.0527-0.395,0.1843-0.6322,0.1843-1.0271c0-0.8694-0.5793-1.3698-0.8955-2.1599c1.0533-0.79,1.6855-1.3433,2.2915-2.6338
	  l-0.1578-1.4221c-0.7903-0.0264-1.2118-0.1581-2.0018-0.1581c-0.8694,0-1.396,0.1581-2.239,0.3422l-1.0532-0.1841
	  c-0.0527-0.6848-0.1846-1.0537-0.1846-1.7385c0-1.4221,2.0281-1.0272,3.1869-1.7646c1.4487-0.9744,1.0536-2.5548,1.5806-4.2404
	  c-1.3698,0-2.4232-1.2906-2.2917-2.6339c-2.1595,0-3.6608-1.0798-5.8207-1.0798c-1.6331,0.6848-2.7656,0.8164-4.3983,1.6066
	  c1.8964,1.5013,3.7399,0.8165,6.1627,1.2379l0.1846,0.6848C173.6882,1550.1541,174.0303,1552.8405,172.1868,1552.8405z"/>
	<path d="M115.7964,1511.4366c0.3159,0,0.395,0.3425,0.7112,0.3425h1.4747
	  c-0.4213-1.8965-0.6058-3.3451-0.6058-5.2941c-1.4487,2.5547-3.8716,3.1342-4.5828,6.005
	  c0.3164,0.0264,0.3951,0.3424,0.7112,0.3424C114.5585,1512.8325,114.7427,1511.4366,115.7964,1511.4366z"/>
	<path d="M157.0422,1550.9178c0.1582-0.3689,0.5266-0.6321,0.5266-1.0798c0-1.2644-0.5002-2.8182-1.7644-2.8182
	  c-1.9491,0-2.8184-1.4487-4.7675-1.5804c-2.5021-0.1843-4.4774,1.3169-5.2941,3.7139c0.3162,0.0789,0.553,0.3424,0.8958,0.3424
	  c1.3696,0,1.8171-1.5804,3.1604-1.5804C152.8542,1547.9152,154.5665,1549.1532,157.0422,1550.9178z"/>
	<path d="M40.8899,1106.2217c1.3698,0,2.8185-0.7374,2.8185-2.1071c0-0.8954-0.7639-1.6857-1.0533-2.4758
	  c-1.5015,0.4479-2.2917,1.0272-3.8719,1.2379v1.4487C38.7831,1105.4315,39.7839,1106.2217,40.8899,1106.2217z"/>
	<path d="M43.7084,1086.3098c1.6329-1.6328,1.5806-3.8716,1.2378-6.1631
	  c-1.1851,0.4741-2.0281,1.4487-2.0281,2.7656c0,1.1061,0.0791,1.7646,0,2.8708L43.7084,1086.3098z"/>
	<path d="M37.3611,990.3331c0,1.1852,0.0524,2.7393,1.2378,2.7393c1.3169,0,1.8435-0.9745,3.0022-1.5804
	  c1.1328-0.6321,3.1609,0.158,3.1609-1.1589C44.762,987.4359,37.3611,987.4359,37.3611,990.3331z"/>
	<path d="M45.6837,1036.425c-1.106,0-1.7909,0.8956-2.1599,1.9492c0.3163,0.0789,0.369,0.5266,0.7112,0.5266
	  c1.3696,0,2.1599-0.5266,3.5297-0.5266c0.079-0.316,0.2104-0.5796,0.342-0.8955l-1.0532-0.8693
	  C46.5267,1036.5305,46.2104,1036.425,45.6837,1036.425z"/>
	<path d="M60.0907,1000.289c-0.7375,0-0.7112,1.0798-0.869,1.7646c0.7372-0.0264,1.1327-0.158,1.8962-0.158
	  c1.8966,0,2.0281,2.4495,3.7402,3.1606c0.2104-0.6585,0.3423-1.0536,0.3423-1.7646
	  C65.2004,1001.0002,62.3824,1000.289,60.0907,1000.289z"/>
	<path d="M65.9114,1012.7997c-1.1851,0-1.5535,1.2905-1.949,2.3967h2.8447
	  c0.1318-0.5004-0.1846-1.5011-0.1846-2.0279C66.3596,1013.1158,66.2278,1012.7997,65.9114,1012.7997z"/>
	<path d="M55.8767,1035.3717c0,0.7374,0.0791,1.1852,0.1577,1.949c-0.7371-0.7638-1.3956-1.2378-2.4492-1.2378
	  c-1.2378,0-1.2114,1.5011-1.7644,2.6338v1.2379c1.6326,0.1316,2.5811,0,4.2136,0c-1.501,0.0791-2.6862,1.0007-2.9758,2.4757
	  c0.4211,0.1581,0.7375,0.3424,1.2114,0.3424c3.582,0,6.3474-1.3696,7.9542-4.5828c0.9481,0.2106,1.3961,0.6321,2.2914,1.0535
	  c0.1316-0.4214,0.3425-0.6584,0.3425-1.1326C64.8582,1034.4497,59.5114,1035.8193,55.8767,1035.3717z"/>
	<path d="M63.9624,1086.3098c1.0803,0,1.6069-0.5793,2.6602-0.7109c0-2.1071-0.3948-3.345,0-5.4521
	  c-2.291-0.5004-3.4766-1.3169-5.8207-1.5803c0,1.9229,0.843,2.9501,1.4224,4.741
	  C62.6191,1084.5453,62.6455,1086.3098,63.9624,1086.3098z"/>
	<path d="M36.6499,1337.6302c-0.0791,0.4476-0.3428,0.6321-0.3428,1.0797c0,0.7375,1.0012,0.7902,1.7648,0.8693
	  c2.0282,0.316,3.1608,0.0789,5.1097,0.7112c-0.7112,1.9226-1.9753,2.8708-2.1072,4.9253c0.2898,0,0.3953,0.3685,0.6848,0.3685
	  c1.4224,0,1.1588-2.1334,2.2915-2.8182c1.7648-1.1587,4.7671-0.4214,4.7671-2.5283v-3.424c0-1.0272,0.7903-1.3696,1.054-2.3441
	  c-0.7903-0.1844-1.317-0.1844-2.1072,0c0.1317-0.7112,0.342-1.1853,0.342-1.949c0-2.3706-1.9226-3.8718-4.2139-4.3987
	  c0,0.3162-0.369,0.3951-0.369,0.7112c0,1.8965,2.1072,2.5022,2.1072,4.3984c0,1.1063-0.6848,1.712-0.6848,2.8182
	  c0,0.5267,0.1582,0.922,0.3428,1.4224c-1.6597,0.2633-2.9503,0.3424-4.0563,1.5802c-1.1326-0.7373-1.8438-1.4221-3.2131-1.4221
	  H36.6499z"/>
	<path d="M75.4198,1041.9036c-1.712,0.395-2.9762,0.3423-4.2145,1.5803c0.7903,1.3169,0.843,2.2915,1.3961,3.6873
	  l0.7112,0.1844c1.1587-1.5277,3.0026-2.1071,3.0026-4.056C76.3152,1042.7727,75.5253,1042.4303,75.4198,1041.9036z"/>
	<path d="M44.0508,1100.7698c0.8954,1.0535,0.0527,2.5811,1.0536,3.5293c3.1342,2.8972,5.3995,5.2676,9.6923,5.2676
	  c3.8453,0,7.2432-2.95,7.2432-6.769c0-1.2378-1.4224-1.6855-1.4224-2.9233c0-0.7375,0.8956-1.001,0.8956-1.7646
	  c0-2.0544-2.8711-1.6331-4.4247-2.9763c0.8428-1.5012,2.3439-2.0017,2.4757-3.7139l-0.7112-0.1843
	  c-1.317,0.7639-2.2386,1.3433-2.9762,2.6602c-2.1333-0.7109-3.3711-1.6855-4.5829-3.5292
	  c-0.5795,1.0009-0.8954,1.7119-1.2379,2.8182l1.2379,2.1069c-0.5006,1.9491-1.4747,3.0815-3.1871,4.0562l-0.7109-0.5269
	  l0.527-3.1604c-0.2899-1.8965-1.7914-3.187-3.6877-3.187c-2.818,0-3.7135,3.345-3.7135,6.1632
	  C40.5215,1100.2429,43.0763,1099.5845,44.0508,1100.7698z"/>
	<path d="M48.1067,1040.6658c0.843,2.502,1.9492,3.8716,4.0562,5.4519l0.1846-0.7112l-2.1335-2.8181
	  C49.5291,1041.9036,48.8179,1041.3767,48.1067,1040.6658z"/>
	<path d="M49.8718,1086.6523c0.3157,0,0.3948,0.3687,0.7108,0.3687c1.3696,0,0.6061-2.2913,1.5802-3.187
	  c1.3169-1.2378,4.3987,0.1055,4.3987-1.7645c0-1.2115-1.5276-1.3169-2.6339-1.7646c0.3951-0.7375,0.6586-1.1852,1.0536-1.9226
	  c-0.9221-0.6322-1.5806-0.922-2.2914-1.7648c0.1315-0.5005,0.3688-0.8955,0.3688-1.4222c0-0.6057-0.4479-1.2115-1.08-1.2115
	  c-2.5023,0-2.4496,3.1079-3.6874,5.2676c0.4739,0.3688,1.2378,0.4479,1.2378,1.0536c0,0.5795-0.5266,0.8429-0.5266,1.4222
	  C49.0024,1083.676,49.4236,1084.7561,49.8718,1086.6523z"/>
	<path d="M63.4358,1052.2808c0-0.9216,0.5793-1.3433,0.7112-2.2914c-2.3706-0.3951-3.266-2.4493-5.6365-2.4493
	  c-3.1345,0-4.3987,2.8181-5.8207,5.6364c0.4479,0.1844,0.7635,0.2633,1.2378,0.3424l4.2405-1.0536l0.6848,0.1844
	  c-0.1318,0.9744-0.5267,1.5012-0.5267,2.4758c0,3.7664,4.1877,4.2667,6.532,7.2166c-0.5266,0.3162-0.9221,0.5793-1.4224,0.8693
	  c2.6602,0.8954,4.4246,0.1844,7.0583,1.0533l0.7112-0.158c0-0.2633,0.1846-0.395,0.1846-0.6584
	  c0-0.8954-0.553-1.3695-0.553-2.2651c0-2.4493,0.8164-3.7927,1.0796-6.2421c-2.291,0-3.7134-0.1053-5.8206-0.8956
	  C64.9373,1053.6504,63.4358,1053.5188,63.4358,1052.2808z"/>
	<path d="M51.4517,1056.1788c-0.79,0-1.0532,0.9484-1.0532,1.7648c0,1.4486,1.8962,1.3959,3.345,1.5803
	  c0.1055-0.7638,0.1842-1.1853,0.1842-1.9491C53.0586,1056.9164,52.558,1056.1788,51.4517,1056.1788z"/>
	<path d="M71.5481,1040.6658c1.58-2.0282,3.3186-2.9238,3.7135-5.4785c-0.4475-0.158-0.7639-0.3424-1.2378-0.3424
	  c-0.9745,0-0.7903-1.7645-1.7645-1.7645c-0.9221,0-1.2905,0.7373-2.1072,1.0533c0.1318,0.6586,0.5266,1.0536,0.5266,1.7648
	  c0,1.0271-1.0532,1.4486-1.0532,2.4758C69.6255,1039.5593,70.4941,1040.1389,71.5481,1040.6658z"/>
	<path d="M63.9624,1042.957c-1.1851,0.2634-2.8181,0.1582-2.8181,1.396c0,1.3696,0.79,2.1333,1.6067,3.187
	  C64.4629,1046.6971,64.2788,1044.8534,63.9624,1042.957z"/>
	<path d="M55.1658,1027.918v-1.3698c-2.0281,0.1318-2.3708,2.8182-4.3989,2.8182
	  c-1.2114,0-1.6853-0.9481-2.8441-1.2114c-0.1317,0.395-0.3427,0.6057-0.3427,1.0535c0,1.0007,0.5793,2.1069,1.5806,2.1069
	  c0.6321,0,0.7898-0.7109,1.422-0.7109c1.5011,0,1.6593,2.2914,3.1608,2.2914c1.0269,0,1.554-0.5267,2.4756-0.8693l0.5266-0.8954
	  c-1.4482-0.0791-2.2383-0.2108-3.687,0C53.5325,1029.7352,55.1658,1029.4192,55.1658,1027.918z"/>
	<path d="M46.8689,1067.6361c2.0017,1.9755,3.5032,2.8182,6.1897,3.6873
	  c-0.4215-2.5021-1.0272-5.4519-3.5295-5.4519C48.2913,1065.8715,47.6592,1066.7405,46.8689,1067.6361z"/>
	<path d="M51.6362,1061.2886c0,0.2898-0.1846,0.4214-0.1846,0.7375c0,1.4485,0.7112,2.2385,1.4224,3.4766
	  c0.9749-0.5269,1.2378-1.5803,0.8694-2.6338C53.0586,1062.1577,52.5056,1061.71,51.6362,1061.2886z"/>
	<path d="M59.3795,1088.6013c-0.869-0.7902-1.4484-1.4222-2.6339-1.4222c-1.5798,0-3.687,0.1317-3.687,1.7384
	  v1.4486c0.2897,0,0.5266,0.1844,0.8164,0.1844C56.1399,1090.5505,57.7996,1090.1816,59.3795,1088.6013z"/>
	<path d="M29.9598,1046.8289l-0.5266-1.0535c-0.3164-0.7903-0.527-1.7649-1.4225-1.7649
	  c-0.4214,0-0.6584,0.2108-1.0535,0.3425c-0.0527,0.5795-0.1843,0.8955-0.1843,1.4749c0,1.5804,1.2378,2.1334,2.1333,3.4767
	  C29.6438,1048.6461,29.828,1047.8296,29.9598,1046.8289z"/>
	<path d="M31.54,1348.0337c-0.1315,1.2379-0.0787,1.9491,0,3.187h1.2382l3.0023-1.2379l0.1582-0.7112
	  C34.3318,1348.4816,33.3049,1347.8231,31.54,1348.0337z"/>
	<path d="M64.5156,1357.5682c0-1.4224-0.5796-2.1597-0.8953-3.5293c-1.2643,0.5269-2.1073,0.8691-3.5297,0.8691
	  c0.3951,2.4231,1.0536,3.6609,2.1335,5.8207C63.3567,1359.8597,64.5156,1359.0433,64.5156,1357.5682z"/>
	<path d="M56.9302,1376.4264c-0.1055,0.4214-0.3687,0.6058-0.3687,1.0537c0,1.3169,1.6329,1.3169,2.6602,2.1069
	  c1.3696,1.0535,2.3177,1.9491,4.0823,1.9491h1.3696c0.1055-0.4478,0.3691-0.6322,0.3691-1.0536
	  c0-1.554-2.2126-1.0271-3.5297-1.7646c0.4213-1.3696,1.0536-2.1334,1.0536-3.582c0-0.6584-0.1318-1.0535-0.1842-1.7119
	  c-0.7112-0.0791-1.0538-0.1317-1.765-0.1844C60.0643,1375.0568,58.8265,1376.6372,56.9302,1376.4264z"/>
	<path d="M76.4995,1452.5443c-0.9479,0-1.2906,0.7637-2.1333,1.0798c-0.1316-0.5269-0.6584-1.6331-0.8691-2.1335
	  l-3.5295-1.5801c-0.1318,1.8435,1.5806,2.502,3.0027,3.7136c1.3169,1.0797,2.0281,2.4493,3.7928,2.4493
	  c-0.0527,0.8429,0,1.2906,0,2.1334c0,0.2897-0.3688,0.4215-0.4479,0.6848l0.1843,0.7112c0.8693,0.0525,1.3433,0.316,2.1072,0.7111
	  c-0.4476,0.8693-0.9746,1.2379-1.4224,2.1072c0.3163,0.1842,0.5005,0.5266,0.8956,0.5266c1.1061,0,1.3698-1.3959,2.4493-1.3959
	  c1.7648,0,2.2654,1.6594,3.8979,2.2915c2.0544,0.79,3.5559,0,5.8207,0.3423c-2.0277-2.739-4.7142-2.6865-7.9539-3.8717
	  c0.8427-0.8427,1.6066-1.2906,1.7648-2.4758c-0.2637-0.1317-0.3955-0.3422-0.6848-0.3422c-0.6321,0-0.9485,0.3422-1.4224,0.7109
	  c-0.2637-1.6329-0.7112-2.6074-0.5266-4.2405c-0.6321-0.0527-0.9749-0.1316-1.5806-0.1843
	  c-0.1055,0.316-0.5266,0.3688-0.5266,0.7112c0,0.8954,0.8694,1.1853,0.8694,2.0807v2.1598H79.186
	  c-1.1061,0-1.6327-1.1853-1.6327-2.2915c0-0.8955-0.843-1.1853-1.6069-1.6066c0.6322-0.6058,0.9745-1.08,1.2379-1.9227
	  C76.8949,1452.8602,76.7894,1452.5443,76.4995,1452.5443z"/>
	<path d="M46.7109,1320.7736c0,4.5829,1.5276,8.0596,5.7947,10.1666c0.2366-1.4486-0.2637-2.5548,0.553-3.6874
	  c0.2897-0.5004,1.2114-0.4478,1.2114-1.0798c0-0.6057-0.0264-0.9482,0-1.5803c0-0.2634,0.1846-0.395,0.1846-0.6584
	  c0-1.1326-0.843-2.5549-1.5806-3.3976c-0.3948-0.7902-0.6584-1.7648-1.5802-1.7648c-1.7384,0-2.6866,0.7112-4.4249,0.8955
	  C46.8425,1320.1151,46.7109,1320.3259,46.7109,1320.7736z"/>
	<path d="M52.1628,1315.7957c0-1.3434-2.6865-0.4478-3.345,0.6848c0.6057,0.2372,1.054,0.5531,1.7648,0.5531
	  C51.3729,1317.0336,52.1628,1316.5858,52.1628,1315.7957z"/>
	<path d="M62.2242,1449.568c1.7909,0,2.7657-0.5269,4.5829-0.5269l0.3424-0.7112l-0.3424-1.4221
	  c-1.08,0.2633-1.7385,0.6321-2.8447,0.7112v-2.8182c-0.3948-0.0527-0.6584-0.1844-1.0532-0.1844
	  c-0.7375,0-1.001,0.8955-1.7649,0.8955c-1.9753,0-2.9762-1.0535-4.9253-1.4222c-2.6074-0.474-6.1631-0.1581-6.1631-2.8182
	  c0-1.0009,0.9219-1.2642,1.2379-2.2386c-0.8427-0.0791-1.2906-0.0527-2.1332-0.0527c-1.4487,0-2.713-1.3696-2.4497-2.8182
	  c-2.5287-0.8428-3.0817-3.2659-5.6365-3.8716l-0.1846,0.7109c2.1073,2.6338,3.9246,4.5829,3.5297,7.9279
	  c0.2633,0,0.3949,0.1844,0.6584,0.1844c0.6057,0,0.843-0.5532,1.4487-0.5532c1.1852,0,1.1324,1.475,1.7645,2.4758
	  c0.9221,1.5012,1.7646,2.3442,2.6338,3.8718c0.5793-0.158,0.7903-0.6848,1.4224-0.6848c1.2378,0,1.7117,1.0009,2.6338,1.7646
	  c2.1072,1.712,3.8717,1.9229,6.3474,3.1606c-0.474-0.8429-0.8691-1.3169-1.5801-1.9491c0.2631,0,0.3949-0.1581,0.6586-0.1581
	  C61.1179,1449.0411,61.5131,1449.568,62.2242,1449.568z"/>
	<path d="M46.3422,1312.0819c-1.396-0.2634-1.3169,1.8174-2.6338,2.4758c0.7112,0.7112,1.2378,1.0535,2.1072,1.396
	  l1.2379-0.1581v-1.2379C46.8689,1313.5834,47.3694,1312.2664,46.3422,1312.0819z"/>
	<path d="M56.0344,1462.9478c0.3164,0,0.3955,0.3688,0.7112,0.3688c0.9221,0,0.843-1.2905,1.4225-1.949
	  c0.7375-0.8691,1.6593-1.2378,2.1072-2.2915c-0.2637,0-0.4479-0.1843-0.7112-0.1843
	  C57.5095,1458.8917,57.0093,1461.0251,56.0344,1462.9478z"/>
	<path d="M79.4761,1471.2444c-0.7903-1.0536-1.0012-1.8962-1.9227-2.8182c-0.1318,0.3953-0.369,0.6057-0.369,1.0537
	  c0,2.2913,0.7112,5.1096,3.0029,5.1096c0.7634,0,1.7644-0.1318,1.7644-0.8693c0-1.2115-1.3169-1.7646-1.7644-2.8446
	  L79.4761,1471.2444z"/>
	<path d="M81.425,1442.6936c0.3157,0,0.3948,0.3424,0.7112,0.3424c0.4739,0,0.6848-0.5793,0.6848-1.0535
	  c0-2.1333-2.3708-2.8708-4.5042-3.1343C80.1345,1439.4803,81.2932,1440.7709,81.425,1442.6936z"/>
	<path d="M68.5452,1416.9612c-0.4211,0-0.6584-0.2372-1.0532-0.3688h-1.2378c0,4.1879-5.3204,4.978-5.6367,9.1656
	  l0.7112,0.1844c1.0538-1.3695,1.5015-3.0027,3.2134-3.0027c0.6584,0,1.0537,0.1318,1.7122,0.1844
	  c-0.4742,1.5013-1.7122,1.8964-2.2917,3.3451l0.7112,0.1843c0.5005-0.5005,0.8958-0.8429,1.4224-1.238l0.1582,0.7112
	  l-1.2114,3.1606c0.8687,0.4478,1.4747,0.3688,2.4492,0.3688c2.0808,0,2.0808-2.5548,3.0022-4.4248
	  c-0.9741-0.4742-1.7117-0.922-2.1068-1.9227c0.4742-0.1844,0.869-0.3689,1.396-0.3689c2.0278,0,2.2914-2.7126,2.2914-4.7408
	  c0-0.9745-0.7375-1.8699-0.8694-2.8182C70.2839,1416.0656,69.7571,1416.9612,68.5452,1416.9612z"/>
	<path d="M27.8527,1292.697l-1.7645-0.3424c-0.9749,1.6594-1.8174,2.5547-3.345,3.6873
	  c-0.8167-1.6329-0.8167-2.7391-1.7648-4.2141h-1.0536v2.1599c0,1.7909-0.0527,4.3457,1.7384,4.3457
	  c1.0272,0,1.5011-0.5266,2.5287-0.5266c0.9741,0,1.5012,0.0789,2.4492,0.1841c-0.2635,2.4233,0,3.7402,0,6.1633
	  c0,1.5802-1.7908,2.1069-1.7908,3.7136c0,0.4214,0.342,0.6058,0.342,1.0536c0,1.712-1.0005,2.5548-1.396,4.214
	  c2.1072-1.2378,1.6333-3.6873,3.5295-5.2676c2.1599-1.8699,4.7411-3.0024,4.3984-5.8207c0.2635,0,0.3954,0.1581,0.6584,0.1581
	  c1.0012,0,1.5278-0.6584,2.3445-1.2117c-0.2637-0.4478-0.6584-0.8955-1.2383-0.8955c-1.4484,0-2.1332,0.8955-3.3446,1.5803
	  c-0.1055-0.2897-0.527-0.3424-0.527-0.6848c0-0.5793,0.3424-0.8955,0.527-1.4222c-1.4751-0.7112-3.3715-1.0009-3.3715-2.6339
	  c0-1.2115,1.0797-1.6855,1.0797-2.8708V1292.697z"/>
	<path d="M28.0107,1191.5315c0,2.871,2.7921,4.3195,5.6362,4.7672l1.0276-0.1843
	  c-0.1318-0.8429-0.0527-1.2905,0.0527-2.1072c-2.6075-0.3159-3.3978-2.5283-4.952-4.5828
	  C28.9854,1190.0302,28.0107,1190.478,28.0107,1191.5315z"/>
	<path d="M23.9546,1197.3523c0,0.2897-0.1582,0.4476-0.1582,0.7374c0,1.8174,2.1863,2.0017,2.8184,3.661
	  c0.7112,1.9755,1.3696,3.0553,2.2915,4.9253c-0.5006,0.1055-0.8955,0.1844-1.4221,0.1844l-0.1582,0.7112
	  c1.9227,1.5273,1.6594,3.6083,2.4493,5.9786l0.7112,0.1844c1.7648-1.9491,4.2408-2.6075,4.2408-5.1887
	  c0-2.0808-2.8184-2.4231-2.8184-4.5039c0-0.3159,0.2896-0.3949,0.3423-0.7109h1.3958c-0.4739-2.0544-1.7118-2.9501-2.976-4.583
	  c-1.0536,0.6323-1.7648,1.0536-3.0026,1.0536C25.9563,1199.8018,25.5613,1198.0107,23.9546,1197.3523z"/>
	<path d="M37.1765,1186.4218c-0.2897-0.0789-0.3424-0.5267-0.6848-0.5267c-2.2126,0-4.2405,1.5013-4.2405,3.6874
	  c0,1.6331,1.0537,2.6075,2.4761,3.3451h1.3956c0.0527-0.6058,0.1842-0.9484,0.1842-1.5804c0-0.7109-0.895-0.9218-0.895-1.6329
	  v-1.1852C36.3335,1188.0812,37.0183,1187.4755,37.1765,1186.4218z"/>
	<path d="M14.4465,1212.6813c0.3951,0.0525,0.6057,0.1843,1.0272,0.1843c2.5548,0,2.9762-2.9236,5.5046-3.5294
	  c1.0536-0.2633,2.1068-0.8429,2.1068-1.949c0-1.5277-1.7644-2.0282-1.7644-3.5558v-1.3695l-0.7112-0.5267
	  c-1.4487,1.6329-0.342,3.4766-0.8691,5.6365C19.0293,1210.3898,15.8162,1210.1791,14.4465,1212.6813z"/>
	<path d="M32.2512,1390.7018c-1.5011,0.8164-3.1871,1.2644-3.1871,2.9763c0,1.1061,1.6333,0.7639,2.476,1.4224
	  c0.9746,0.79,0.9746,1.949,2.0281,2.6338c0.2634-1.1853,0-1.9229,0-3.1606c0-1.9753,2.2124-2.6074,2.2124-4.5828
	  C35.7805,1388.5685,33.489,1390.0433,32.2512,1390.7018z"/>
	<path d="M27.4841,1218.1333c-0.6584-0.6586-1.1853-1.2117-2.1072-1.2117c-1.949,0-2.2917,2.4495-2.2917,4.3986
	  c0,0.8428,0.5797,1.3169,1.2383,1.7646c-0.7113,0.4741-1.1064,0.9746-1.4221,1.7646c1.8171,1.001,1.6853,2.7128,3.1868,4.2141
	  c-0.843,0.1316-1.2905,0.1316-2.1335,0c-0.0791,0.316-0.3424,0.5269-0.3424,0.8955c0,1.791,2.1595,1.8962,3.7137,2.8182
	  c0.3425-1.1588,0-1.9491,0-3.1869c0-2.1599,1.7382-3.1079,1.7382-5.2678C29.0641,1222.0577,29.2487,1219.5555,27.4841,1218.1333z"
	  />
	<path d="M10.759,1215.6837c-0.8953,0-1.4224,0.8428-1.4224,1.712v4.2667c0.8694,0.8956,1.2378,1.949,2.4761,1.949
	  c2.0281,0,3.0817-1.1851,4.7407-2.2913l0.7112,0.5267c-1.1061,2.2386-3.6082,2.3705-4.3984,4.7672
	  c0.3949,0.0264,0.6586,0.158,1.0533,0.158c1.1063,0,1.4224-1.0007,2.2917-1.5802c1.8964-1.2643,4.0563-1.6329,4.5829-3.8717
	  l-0.5266-2.1072c-0.5271,0.0791-0.8958,0.1317-1.4224,0.1581c0-0.2633-0.1582-0.3951-0.1582-0.6584
	  c0-0.5793-0.2634-1.3959-0.1846-1.9755c-1.0532-0.5267-1.6327-1.0535-2.8181-1.0535c-1.0272,0-1.4484,0.6848-2.476,0.6848
	  C12.2078,1216.3685,11.76,1215.6837,10.759,1215.6837z"/>
	<path d="M19.0293,1195.9299l-1.0535,0.7112l-0.5266,0.7112c-0.5267,0.7112-0.7639,1.1062-1.4224,1.7646
	  c-0.1582-1.1589-0.0791-2.6603-1.2379-2.6603c-0.8167,0-1.2115,0.922-1.2115,1.7649c0,2.5547,0.6058,4.0033,1.5803,6.3474
	  c0.79-0.9218,1.0009-1.791,1.7648-2.8182c0.2631,0.4478,0.3422,1.0536,0.869,1.0536c0.8955,0,1.1851-0.8428,1.5803-1.5803
	  l-0.1582-1.4222L19.0293,1195.9299z"/>
	<path d="M22.4795,1212.7601c1.054-0.158,1.7388-0.3424,2.7129,0l0.1846-0.79
	  c-0.7112-1.3959-1.3696-2.4231-2.8975-2.6339V1212.7601z"/>
	<path d="M12.155,1251.6356c0.6584,1.3696,1.1852,2.2124,1.9491,3.5293c4.3195-1.554,5.0568-5.0833,8.2703-8.2966
	  c1.9491-1.9226,2.1595-3.7927,3.0026-6.3474c0.5266-1.6594,1.949-2.4233,1.949-4.2142c0-0.5269-0.1317-0.8954-0.1844-1.4222
	  h-1.027c-1.6333,0-1.9226,2.1071-3.5559,2.1071c-1.0532,0-1.1587-1.3434-2.1072-1.7383c-0.895-0.3688-2.1333-0.4479-2.1333-1.4224
	  c0-2.6864,2.6603-3.661,2.6603-6.3475c0-0.4476-0.3688-0.7112-0.527-1.0535c-3.3711,1.6855-4.7144,2.2914-8.2964,2.2914
	  c-0.0527,0.3951-0.1844,0.6584-0.1844,1.0536c0,1.5802,1.8175,1.949,3.3713,2.2914c-3.0023,1.712-5.2941,3.6083-5.2941,7.0587
	  c0,1.9226,1.6333,2.5549,2.8184,4.0559c-0.922-0.1316-1.4224-0.2632-2.2917-0.5266c0.3164,2.0281,1.7651,2.8972,1.7651,4.9253
	  c0,1.001-0.8958,1.4486-0.8958,2.4758C11.4438,1250.7926,11.8127,1250.9243,12.155,1251.6356z"/>
	<path d="M53.5852,1400.5524c0-0.7902-0.316-1.2643-0.7112-1.9227c-0.9745,0.8693-1.5538,1.3696-2.4756,2.2914
	  c0.3159,0.3162,0.4475,0.7112,0.8954,0.7112C52.2419,1401.6322,53.5852,1401.527,53.5852,1400.5524z"/>
	<path d="M68.9143,1411.4828c-0.7639,0-1.1854,0.5005-1.7648,0.8955c0.316,0.7374,0.5793,1.5803,1.3956,1.5803
	  c0.843,0,1.2905-0.0527,2.1335,0l0.1582-0.8693C70.7578,1412.1149,69.8884,1411.4828,68.9143,1411.4828z"/>
	<path d="M68.9143,1396.3383c-0.8958-1.0537-2.3445-0.9746-2.8184-2.2915
	  c-1.0273-2.739-2.5283-4.3721-5.2941-5.2939c0,0.2634-0.1844,0.4478-0.1844,0.7112c0,2.6338,2.1335,3.8716,2.1335,6.5055
	  c3.9507,0,5.9788,3.1342,7.7432,6.7162l0.3428,0.6848C70.4155,1400.5524,70.7051,1398.4979,68.9143,1396.3383z"/>
	<path d="M56.4036,1405.662c0,3.4502,1.9226,5.2151,1.9226,8.6389c0.3685-0.0264,0.5267,0.1844,0.8955,0.1844
	  c1.1063,0,1.2642-1.3696,1.7648-2.2914c0.7899-1.4486,1.7118-2.2125,1.9227-3.8718c2.0281,0.1316,2.9497,1.396,4.7673,2.2914
	  c0.342-1.1588,1.2378-1.7645,1.2378-3.0024c0-1.712-1.686-2.1598-3.0029-3.1605c-1.6326-1.2906-2.2383-2.397-4.2401-3.3715
	  c-0.0791,0.316-0.527,0.3688-0.527,0.7112c0,0.9745,0.7112,1.4486,0.7112,2.4231v1.4486
	  c-0.7375-0.395-1.0536-1.2114-1.9226-1.2114c-0.5533,0-0.8955,0.2104-1.4224,0.3423v0.8691l0.3424,0.7112
	  c-0.7375-0.5269-1.1852-0.8693-1.9227-1.3959C56.8247,1405.267,56.4036,1405.3195,56.4036,1405.662z"/>
	<path d="M67.1495,1453.0973c1.2378,0.9219,0.9745,2.3177,2.1068,3.345l0.1846-0.7112
	  c-1.0272-2.0278-1.4487-4.3984-3.7137-4.3984c-0.3951,0-0.6586,0.1316-1.0536,0.158
	  C65.0686,1452.5443,66.2542,1452.4125,67.1495,1453.0973z"/>
	<path d="M52.6898,1383.6432c-0.9218-1.8962-0.7112-4.5829-2.818-4.5829c-0.5798,0-1.2383,0.316-1.2383,0.8693
	  c0,1.4221,1.4224,1.8174,1.7649,3.1868c0.4475,1.7122,0.0527,3.2922,1.4224,4.3987c1.7644,1.4221,3.6079,0.9744,5.4519,2.2914
	  l0.7108,0.1844c-0.3422-0.922-1.0533-1.4487-1.0533-2.4758c0-0.5269,0.3425-0.8693,0.3425-1.396
	  C57.2727,1384.0909,53.5852,1385.4606,52.6898,1383.6432z"/>
	<path d="M41.0745,1309.0795c-0.5793,1.8173-1.2378,2.8181-1.2378,4.7144v1.4751
	  c2.2915-1.5012,5.7679-2.5284,4.7411-5.1096C43.2607,1309.7115,42.4705,1309.3165,41.0745,1309.0795z"/>
	<path d="M69.7833,1388.9371c-0.3424,0.8693-1.396,1.1326-1.396,2.1071c0,1.2379,1.2382,1.5013,1.923,2.4758
	  c0.5002-0.3688,0.79-0.6321,1.2378-1.0535c-0.6584-1.0272-1.054-1.6857-1.396-2.8182L69.7833,1388.9371z"/>
	<path d="M57.6414,1357.7263h-2.1335c-0.0264,0.2633-0.342,0.395-0.342,0.7111
	  c0,1.2905,0.9214,1.8438,1.3958,3.0026c0.3159,0.7902,0.3687,1.9227,1.238,1.9227c0.9215,0,1.7645-0.6584,1.7645-1.5803
	  C59.5641,1360.0703,59.0374,1358.6481,57.6414,1357.7263z"/>
	<path d="M65.5693,1382.4054c-0.3164,0.9744-1.0537,1.4485-1.0537,2.4757c0,1.1852,0.553,2.4758,1.7385,2.4758
	  c0.4475,0,0.6321-0.3688,1.0796-0.3688c0.4215,0,0.6584,0.3688,1.0536,0.5269c0.0791-0.2899,0.527-0.3425,0.527-0.7112
	  C68.9143,1384.644,67.281,1383.6959,65.5693,1382.4054z"/>
	<path d="M43.3396,1351.9319c-1.5803,0.7902-2.8445,0.5267-4.2141,1.5802c-1.1587,0.8693-0.5793,2.8182-1.949,3.345
	  c-1.8435,0.7375-3.9243,0.9746-4.2144,3.0027c1.3169-0.1055,1.7124-1.6067,3.0293-1.6067h1.3696
	  c-2.3445,1.7383-4.188,3.2396-4.3989,6.1895c1.4487,0,1.9753-1.2905,2.9766-2.2913c1.2378-1.238,2.4229-1.5542,3.3713-3.0027
	  c1.0796-1.7646,1.0532-4.3984,3.1604-4.3984c1.1852,0,1.7118,0.6848,2.8185,1.0535c0-0.2634,0.184-0.395,0.184-0.6584
	  c0-0.6321-0.3685-0.8955-0.5267-1.4751C44.762,1352.8536,43.9719,1352.4586,43.3396,1351.9319z"/>
	<path d="M27.4841,1363.7313c1.0533-1.5012,1.5012-2.6865,3.1869-3.5292
	  c-1.2378-1.2379-2.1599-1.8436-3.0026-3.3451c-0.2634,1.8438,0.1842,3.3977-1.2382,4.5829
	  c-0.9215,0.7375-2.2911,0.9745-2.2911,2.1862c0,1.2114,0.8955,1.7383,0.8955,2.9236c0,2.5021-3.1873,3.0815-3.1873,5.5836v0.9481
	  c0.3164,0.0791,0.3428,0.5269,0.7112,0.5269c2.8711,0,3.6875-3.5031,3.6875-6.3474c0-0.7112-0.3425-1.0537-0.3425-1.7649
	  C25.9036,1364.5742,26.9573,1364.4689,27.4841,1363.7313z"/>
	<path d="M42.655,1405.3195c0-1.9753-3.0557,0.7903-4.9519,1.4224l-1.396-0.7112l-0.3684,0.7112
	  c1.6066,1.1853,2.8444,1.396,4.2405,2.8184C41.0217,1407.8744,42.655,1407.2159,42.655,1405.3195z"/>
	<path d="M50.925,1350.3253c-0.8691-2.4233-2.8445-2.8446-4.5829-4.7411c-0.2897,0.2108-0.553,0.4741-0.553,0.8693
	  c0,1.1853,0.0264,1.8174,0.0264,3.0026c1.5011,0,2.265,1.0535,3.7399,1.0535C50.082,1350.5095,50.3984,1350.4305,50.925,1350.3253
	  z"/>
	<path d="M29.7753,1387.8837c0.5795-2.0017,1.6333-3.582,1.9491-5.6627c0.1846-0.6058,0.5269-0.9481,0.5269-1.6066
	  v-1.3696c-0.316-0.1053-0.5269-0.3689-0.8954-0.3689c-1.4751,0-2.9766,0.9746-2.9766,2.4758c0,2.4758,0.1318,3.9772,0.6848,6.3477
	  L29.7753,1387.8837z"/>
	<path d="M36.8341,1398.2609l0.7112,0.1843c1.08-2.8181,0.4215-4.9252,2.1068-7.401
	  c1.0012-1.5013,2.4233-1.7645,3.3451-3.3448c-1.2643,0.1843-1.9491,0.5266-3.1605,0.8691v-2.1072l-0.8958-0.5267
	  c-0.4475,2.8182,0.5271,4.5829-0.342,7.2167C37.9404,1395.153,36.9656,1396.1539,36.8341,1398.2609z"/>
	<path d="M42.9972,1399.1564c-1.7645-0.7112-3.2133,0.7375-4.5829,2.1072l0.7112,1.4221
	  C41.0745,1402.0536,41.812,1400.7367,42.9972,1399.1564z"/>
	<path d="M38.3352,1378.7179c-0.0527-0.8954,0-1.4222,0-2.2915c0-1.7645-2.3965-1.949-4.135-1.949
	  c0,0.3425-0.1841,0.5269-0.1841,0.8693c0,1.8173,1.7117,2.265,3.0022,3.5292L38.3352,1378.7179z"/>
	<path d="M163.5476,779.2843c0-2.944-1.25-5.0568-2.5134-7.1608v10.2578
	  C162.4889,781.8279,163.5476,780.9241,163.5476,779.2843z"/>
</g>

</svg>
